<?xml version="1.0" encoding="utf-8"?>
<!-- Generator: Adobe Illustrator 17.0.0, SVG Export Plug-In . SVG Version: 6.00 Build 0)  -->
<!DOCTYPE svg PUBLIC "-//W3C//DTD SVG 1.1//EN" "http://www.w3.org/Graphics/SVG/1.1/DTD/svg11.dtd">
<svg version="1.1" xmlns="http://www.w3.org/2000/svg" xmlns:xlink="http://www.w3.org/1999/xlink" x="0px" y="0px" width="206px"
	 height="331px" viewBox="0 0 206 331" enable-background="new 0 0 206 331" xml:space="preserve">
<g id="图层_2">
	<g>
		<path fill="#39B3EF" d="M6,188v12c0,1.657,1.343,3,3,3h12c1.657,0,3-1.343,3-3v-12c0-1.657-1.343-3-3-3H9
			C7.343,185,6,186.343,6,188z M19,194.578V191h1v3.625c0,0.492-0.064,0.811-0.035,0.957c0.049,0.234,0.128,0.422,0.314,0.564
			s0.421,0.213,0.744,0.213c0.328,0,0.566-0.067,0.732-0.201s0.213-0.299,0.247-0.494S22,195.145,22,194.691V191h1v3.531
			c0,0.688,0.096,1.173,0.033,1.457s-0.114,0.523-0.282,0.719s-0.361,0.351-0.642,0.467s-0.633,0.174-1.086,0.174
			c-0.547,0-0.953-0.063-1.236-0.189s-0.502-0.291-0.666-0.492s-0.114-0.414-0.166-0.635C18.879,195.703,19,195.219,19,194.578z
			 M13,191h2.215c0.703,0,1.162,0.291,1.375,0.348c0.328,0.086,0.603,0.404,0.824,0.691s0.332,0.725,0.332,1.181
			c0,0.352-0.064,0.712-0.191,0.952s-0.29,0.428-0.486,0.564s-0.396,0.182-0.6,0.227C16.193,195.018,15.793,195,15.27,195H15v2h-2
			V191z M11.766,192.047c0.26,0.245,0.456,0.596,0.586,1.055l-1.145,0.273c-0.068-0.297-0.209-0.531-0.424-0.703
			s-0.476-0.258-0.783-0.258c-0.424,0-0.769,0.152-1.033,0.457s-0.396,0.798-0.396,1.48c0,0.724,0.13,1.24,0.391,1.547
			s0.599,0.461,1.016,0.461c0.307,0,0.572-0.098,0.793-0.293s0.38-0.502,0.477-0.922l1.121,0.355
			c-0.172,0.625-0.458,1.089-0.857,1.393s-0.907,0.455-1.521,0.455c-0.76,0-1.385-0.26-1.875-0.779s-0.734-1.23-0.734-2.131
			c0-0.953,0.246-1.693,0.738-2.221s1.139-0.791,1.941-0.791C10.759,191.426,11.328,191.633,11.766,192.047z"/>
		<path fill="#39B3EF" d="M16.062,194.094c0.154-0.06,0.274-0.187,0.361-0.314s0.131-0.292,0.131-0.462
			c0-0.208-0.061-0.449-0.184-0.584s-0.277-0.289-0.465-0.323c-0.138-0.026-0.416-0.16-0.832-0.16H15v2h0.148
			C15.604,194.25,15.909,194.154,16.062,194.094z"/>
		<rect x="27" y="191" fill="#39B3EF" width="3" height="1"/>
		<rect x="12" y="206" fill="#39B3EF" width="1" height="3"/>
		<rect x="18" y="206" fill="#39B3EF" width="1" height="3"/>
		<rect x="14" y="206" fill="#39B3EF" width="1" height="3"/>
		<rect x="18" y="179" fill="#39B3EF" width="1" height="3"/>
		<rect x="16" y="206" fill="#39B3EF" width="1" height="3"/>
		<rect x="27" y="193" fill="#39B3EF" width="3" height="1"/>
		<rect x="27" y="197" fill="#39B3EF" width="3" height="1"/>
		<path fill="#39B3EF" d="M25,179h-5v3h3c2.209,0,4,1.791,4,4v4h3v-6C30,181.239,27.761,179,25,179z"/>
		<rect x="27" y="195" fill="#39B3EF" width="3" height="1"/>
		<rect y="195" fill="#39B3EF" width="3" height="1"/>
		<rect y="193" fill="#39B3EF" width="3" height="1"/>
		<path fill="#39B3EF" d="M3,202v-3H0v5c0,2.761,2.239,5,5,5h6v-3H7C4.791,206,3,204.209,3,202z"/>
		<rect x="16" y="179" fill="#39B3EF" width="1" height="3"/>
		<path fill="#39B3EF" d="M27,202c0,2.209-1.791,4-4,4h-3v3h5c2.761,0,5-2.239,5-5v-5h-3V202z"/>
		<rect y="191" fill="#39B3EF" width="3" height="1"/>
		<rect y="197" fill="#39B3EF" width="3" height="1"/>
		<rect x="12" y="179" fill="#39B3EF" width="1" height="3"/>
		<rect x="14" y="179" fill="#39B3EF" width="1" height="3"/>
		<path fill="#39B3EF" d="M3,186c0-2.209,1.791-4,4-4h4v-3H5c-2.761,0-5,2.239-5,5v6h3V186z"/>
	</g>
	<g>
		<path fill="#F371A3" d="M57,179H37c-2.761,0-5,2.239-5,5v3.643c0-2.564,2.239-4.643,5-4.643h20c2.761,0,5,2.079,5,4.643V184
			C62,181.239,59.761,179,57,179z"/>
		<path fill="#F371A3" d="M57,184H37c-2.761,0-5,2.239-5,5v4.05c1.694,0.245,3,1.688,3,3.45s-1.306,3.205-3,3.45V204
			c0,2.761,2.239,5,5,5h3v-3h1v3h1v-3h1v3h1v-3h1v3h1v-3h1v3h1v-3h1v3h1v-3h1v3h1v-3h1v3h4c2.761,0,5-2.239,5-5v-4.05
			c-0.165,0.024-0.329,0.05-0.5,0.05c-1.933,0-3.5-1.567-3.5-3.5s1.567-3.5,3.5-3.5c0.171,0,0.335,0.027,0.5,0.05V189
			C62,186.239,59.761,184,57,184z M43,202h-3v-12h3V202z M48,202h-3v-12h3V202z M53,202h-3v-12h3V202z"/>
	</g>
	<g>
		<path fill="#F3A93A" d="M89,179H69c-2.761,0-5,2.239-5,5v10c0,2.761,2.239,5,5,5h20c2.761,0,5-2.239,5-5v-10
			C94,181.239,91.761,179,89,179z M83.5,195h-9c-2.485,0-4.5-1.791-4.5-4c0-1.441,0.865-2.694,2.152-3.398
			c-0.09-0.354-0.152-0.72-0.152-1.102c0-2.485,2.015-4.5,4.5-4.5c1.806,0,3.353,1.071,4.069,2.606
			C80.932,184.233,81.438,184,82,184c1.105,0,2,0.895,2,2c0,0.374-0.109,0.72-0.288,1.019C86.097,187.12,88,188.855,88,191
			C88,193.209,85.985,195,83.5,195z"/>
		<path fill="#F3A93A" d="M89,200H69c-2.761,0-5-2.239-5-5v9c0,2.761,2.239,5,5,5h20c2.761,0,5-2.239,5-5v-9
			C94,197.761,91.761,200,89,200z M78.5,206c-0.828,0-1.5-0.672-1.5-1.5s0.672-1.5,1.5-1.5s1.5,0.672,1.5,1.5S79.328,206,78.5,206z
			 M83.5,206c-0.828,0-1.5-0.672-1.5-1.5s0.672-1.5,1.5-1.5s1.5,0.672,1.5,1.5S84.328,206,83.5,206z M88.5,206
			c-0.828,0-1.5-0.672-1.5-1.5s0.672-1.5,1.5-1.5s1.5,0.672,1.5,1.5S89.328,206,88.5,206z"/>
	</g>
	<g>
		<path fill="#999999" d="M7.5,56.724c-4.136,0-7.5-3.364-7.5-7.5s3.364-7.5,7.5-7.5v1c-3.584,0-6.5,2.916-6.5,6.5
			s2.916,6.5,6.5,6.5s6.5-2.916,6.5-6.5h1C15,53.36,11.636,56.724,7.5,56.724z"/>
		<path fill="#39B3EF" d="M7.5,54.722c-1.409,0-2.817-0.536-3.889-1.608c-2.144-2.145-2.144-5.634,0-7.778
			c2.145-2.144,5.634-2.145,7.778,0l-0.707,0.707c-1.755-1.754-4.609-1.754-6.364,0c-1.754,1.754-1.754,4.61,0,6.364
			c1.755,1.754,4.609,1.754,6.364,0l0.707,0.707C10.317,54.186,8.909,54.722,7.5,54.722z"/>
		<path fill="#999999" d="M7.5,52.722c-0.896,0-1.793-0.341-2.475-1.023c-0.661-0.661-1.025-1.54-1.025-2.475
			s0.364-1.814,1.025-2.475c1.364-1.365,3.586-1.365,4.95,0l-0.707,0.707c-0.975-0.975-2.562-0.975-3.536,0
			c-0.975,0.975-0.975,2.561,0,3.536c0.975,0.975,2.562,0.975,3.536,0l0.707,0.707C9.292,52.382,8.396,52.722,7.5,52.722z"/>
	</g>
	<g>
		<path fill="#999999" d="M135.5,56.724c-4.136,0-7.5-3.364-7.5-7.5s3.364-7.5,7.5-7.5s7.5,3.364,7.5,7.5
			S139.636,56.724,135.5,56.724z M135.5,42.724c-3.584,0-6.5,2.916-6.5,6.5s2.916,6.5,6.5,6.5s6.5-2.916,6.5-6.5
			S139.084,42.724,135.5,42.724z"/>
		<circle fill="#39B3EF" cx="135.5" cy="47.224" r="2"/>
		<path fill="#39B3EF" d="M135.5,49.724c-1.379,0-2.5-1.122-2.5-2.5s1.121-2.5,2.5-2.5s2.5,1.122,2.5,2.5
			S136.879,49.724,135.5,49.724z M135.5,45.724c-0.827,0-1.5,0.673-1.5,1.5s0.673,1.5,1.5,1.5s1.5-0.673,1.5-1.5
			S136.327,45.724,135.5,45.724z"/>
		<path fill="#999999" d="M139.636,55.224h-1v-1.182c0-1.83-1.488-3.318-3.317-3.318c-1.83,0-3.318,1.488-3.318,3.318v1.182h-1
			v-1.182c0-2.381,1.938-4.318,4.318-4.318s4.317,1.938,4.317,4.318V55.224z"/>
	</g>
	<g id="主机">
		<g>
			<path fill="#999999" d="M21.787,56.786h-2.572c-1.221,0-2.214-1.122-2.214-2.5v-10c0-1.378,0.993-2.5,2.214-2.5h2.571
				c1.221,0,2.214,1.122,2.214,2.5v10c0,0.653-0.22,1.271-0.622,1.74C22.958,56.516,22.393,56.786,21.787,56.786z M19.215,42.786
				c-0.669,0-1.214,0.673-1.214,1.5v10c0,0.827,0.544,1.5,1.214,1.5h2.572c0.669,0,1.214-0.673,1.214-1.5l-0.001-10
				c0-0.827-0.544-1.5-1.214-1.5H19.215z"/>
		</g>
		<g>
			<path fill="#999999" d="M29.787,56.724h-2.571c-1.222,0-2.215-1.122-2.215-2.5v-10c0-1.378,0.993-2.5,2.214-2.5h2.571
				c1.221,0,2.214,1.122,2.214,2.5v10c0.001,0.653-0.22,1.271-0.621,1.74C30.958,56.454,30.394,56.724,29.787,56.724z
				 M27.215,42.724c-0.669,0-1.214,0.673-1.214,1.5v10c0,0.827,0.545,1.5,1.215,1.5h2.571c0.669,0,1.214-0.673,1.214-1.5l-0.001-10
				c0-0.827-0.545-1.5-1.214-1.5H27.215z"/>
		</g>
		<g>
			<rect x="19.001" y="50.724" fill="#39B3EF" width="3" height="3"/>
		</g>
		<g>
			<rect x="27.001" y="50.724" fill="#39B3EF" width="3" height="3"/>
		</g>
	</g>
	<g id="服务">
		<g>
			<path fill="#999999" d="M46.5,56.724h-10c-1.379,0-2.5-1.122-2.5-2.5v-10c0-1.378,1.121-2.5,2.5-2.5h10
				c1.379,0,2.5,1.122,2.5,2.5v10C49,55.603,47.879,56.724,46.5,56.724z M36.5,42.724c-0.827,0-1.5,0.673-1.5,1.5v10
				c0,0.827,0.673,1.5,1.5,1.5h10c0.827,0,1.5-0.673,1.5-1.5v-10c0-0.827-0.673-1.5-1.5-1.5H36.5z"/>
		</g>
		<g>
			<rect x="36.5" y="44.224" fill="#39B3EF" width="4" height="4"/>
		</g>
		<g>
			<rect x="42.5" y="44.224" fill="#39B3EF" width="4" height="4"/>
		</g>
		<g>
			<rect x="36.5" y="50.224" fill="#39B3EF" width="4" height="4"/>
		</g>
		<g>
			<rect x="42.5" y="50.224" fill="#39B3EF" width="4" height="4"/>
		</g>
	</g>
	<g id="日志">
		<g>
			<g>
				<path fill="#999999" d="M60.758,56.724h-6c-1.379,0-2.5-1.122-2.5-2.5v-1h1v1c0,0.827,0.673,1.5,1.5,1.5h6
					c0.827,0,1.5-0.673,1.5-1.5v-10c0-0.827-0.673-1.5-1.5-1.5h-6c-0.827,0-1.5,0.673-1.5,1.5v1h-1v-1c0-1.378,1.121-2.5,2.5-2.5h6
					c1.379,0,2.5,1.122,2.5,2.5v10C63.258,55.603,62.137,56.724,60.758,56.724z"/>
			</g>
			<g>
				<rect x="52.258" y="47.724" fill="#999999" width="1" height="3"/>
			</g>
		</g>
		<g>
			<rect x="51.258" y="45.724" fill="#999999" width="3" height="1"/>
		</g>
		<g>
			<rect x="51.258" y="51.724" fill="#999999" width="3" height="1"/>
		</g>
		<g>
			
				<rect x="55.757" y="49.225" transform="matrix(-0.7071 0.7071 -0.7071 -0.7071 139.2336 42.7771)" fill="#39B3EF" width="10" height="2"/>
		</g>
	</g>
	<g>
		<g>
			<path fill="#999999" d="M81.5,56.224h-12c-1.378,0-2.5-1.186-2.5-2.643V41.867h1v11.714c0,0.905,0.673,1.643,1.5,1.643h12V56.224
				z"/>
		</g>
		<g>
			<polygon fill="#39B3EF" points="69.598,53.205 68.736,52.699 71.752,47.552 75.416,49.562 80.081,42.367 80.919,42.911 
				75.75,50.886 72.124,48.897 			"/>
		</g>
	</g>
	<g id="配置">
		<g>
			<path fill="#999999" d="M90.5,56.224c-3.584,0-6.5-2.916-6.5-6.5c0-3.493,2.736-6.342,6.229-6.486l0.521-0.021v6.008H97v0.5
				C97,53.308,94.084,56.224,90.5,56.224z M89.75,44.283C87.048,44.648,85,46.945,85,49.724c0,3.032,2.467,5.5,5.5,5.5
				c2.864,0,5.225-2.2,5.478-5H89.75V44.283z"/>
		</g>
		<g>
			<path fill="#39B3EF" d="M92.25,40.724v7h7C99.25,43.858,96.116,40.724,92.25,40.724z"/>
		</g>
	</g>
	<g id="应用仓库">
		<g>
			<polygon fill="#999999" points="119.006,47.169 111.052,43.551 103.427,47.166 103,46.262 111.044,42.449 119.42,46.259 			"/>
		</g>
		<g>
			<rect x="104.713" y="46" fill="#999999" width="1" height="11"/>
		</g>
		<g>
			<rect x="116.713" y="46" fill="#999999" width="1" height="11"/>
		</g>
		<g>
			<rect x="107.213" y="48" fill="#39B3EF" width="3" height="3"/>
		</g>
		<g>
			<g>
				<path fill="#999999" d="M114.213,49v1h-1v-1H114.213 M115.213,48h-3v3h3V48L115.213,48z"/>
			</g>
		</g>
		<g>
			<g>
				<path fill="#999999" d="M109.213,54v1h-1v-1H109.213 M110.213,53h-3v3h3V53L110.213,53z"/>
			</g>
		</g>
		<g>
			<g>
				<path fill="#999999" d="M114.213,54v1h-1v-1H114.213 M115.213,53h-3v3h3V53L115.213,53z"/>
			</g>
		</g>
	</g>
	<g id="用户">
	</g>
</g>
<g id="图层_1">
	<g>
		<path fill="#FFFFFF" d="M27.361,8.603c0,0-13.437-7.648-15.19-8.604c-1.753-0.956-3.508-0.266-3.508-0.266
			s-6.774,3.666-7.782,5.26C-0.129,6.585,0,9.081,0,9.081s0,8.632,0,14.847c0,6.084,0.294,6.562,0.294,6.562
			c1.727,7.515,10.857,8.018,10.857,8.018c3.102,0,5.385-1.035,6.946-2.149c-0.748,0.611-1.269,0.929-1.269,0.929
			s3.407-1.997,10.267-5.683c6.905-3.711,6.904-9.765,6.904-13.652C33.999,12.269,27.361,8.603,27.361,8.603z M2.429,6.547
			C2.442,6.551,2.45,6.554,2.45,6.554C2.443,6.55,2.436,6.55,2.429,6.547z M20.718,33.649c-3.159,0.059-5.806-1.437-5.806-1.437
			C9.885,29.218,10,24.646,10,24.646V10.74c1,0.469,1.779,0.868,2.253,1.105c2.127,1.062,11.223,5.789,11.273,13.384
			C23.55,28.854,22.235,31.657,20.718,33.649z"/>
		<path fill="#FFFFFF" d="M48.288,9.584C46.343,9.584,45,9.762,43,10v19.636c1,0.148,2.779,0.237,4.527,0.237
			c3.694,0,6.662-1.007,8.439-2.873c1.776-1.836,2.753-4.501,2.753-7.76c0-3.228-1.014-5.538-2.706-7.167
			C54.349,10.443,51.813,9.584,48.288,9.584z M48.28,27.799c-0.958,0-2.28-0.03-2.28-0.148V11.895c0-0.148,1.406-0.267,2.675-0.267
			c5.188,0,7.726,2.991,7.698,7.7C56.373,24.719,53.525,27.799,48.28,27.799z"/>
		<path fill="#FFFFFF" d="M71,20.898c0-2.873-1.156-5.864-5.329-5.864c-1.72,0-3.426,0.503-4.554,1.273l0.529,1.718
			c0.958-0.651,2.134-1.066,3.403-1.066c2.792,0,2.952,2.132,2.952,3.317v0.296c-5-0.03-8.073,1.866-8.073,5.331
			c0,2.073,1.476,4.173,4.24,4.173c1.946,0,3.478-1.076,4.24-2.076h0.084l0.198,2h2.256C70.774,29,71,27.503,71,26.259V20.898z
			 M68,24.867c0,0.267,0.104,0.562,0.02,0.829c-0.395,1.214-1.442,2.399-3.219,2.399c-1.269,0-2.461-0.8-2.461-2.488
			c0-2.784,3.66-3.287,5.66-3.228V24.867z"/>
		<path fill="#FFFFFF" d="M77,11.243l-3,0.681V15h-2v2h2v8.164c0,1.688,0.487,2.961,1.192,3.731c0.592,0.711,1.64,1.096,2.796,1.096
			c0.959,0,1.779-0.148,2.258-0.355l-0.084-1.955c-0.31,0.089-0.721,0.178-1.369,0.178c-1.382,0-1.793-1.007-1.793-2.784V17h3v-2h-3
			V11.243z"/>
		<path fill="#FFFFFF" d="M92,20.898c0-2.873-0.956-5.864-5.13-5.864c-1.72,0-3.327,0.503-4.454,1.273l0.579,1.718
			c0.958-0.651,2.459-1.066,3.728-1.066c2.792,0,3.277,2.132,3.277,3.317v0.296c-6-0.03-8.374,1.866-8.374,5.331
			c0,2.073,1.326,4.173,4.089,4.173c1.946,0,3.328-1.076,4.089-2.076h0.084l0.198,2h2.256C92.174,29,92,27.503,92,26.259V20.898z
			 M90,24.867c0,0.267-0.196,0.562-0.281,0.829c-0.395,1.214-1.592,2.399-3.369,2.399c-1.269,0-2.236-0.8-2.236-2.488
			c0-2.784,2.885-3.287,5.885-3.228V24.867z"/>
		<path fill="#FFFFFF" d="M104.382,11.569c1.579,0,2.905,0.355,3.835,0.83l0.592-2.103c-0.648-0.355-2.143-0.889-4.512-0.889
			c-5.894,0-9.926,4.235-9.926,10.485c0,6.545,4.032,10.1,9.39,10.1c2.312,0,4.117-0.474,5.019-0.948L108.274,27
			c-0.987,0.503-2.51,0.83-4.004,0.83c-4.625,0-7.303-3.14-7.303-8.026C96.966,14.561,99.927,11.569,104.382,11.569z"/>
		<path fill="#FFFFFF" d="M116.167,15.034c-3.976,0-6.401,3.406-6.401,7.73c0,4.324,2.509,7.227,6.711,7.227
			c2.171,0,3.666-0.474,4.54-0.889l-0.423-1.866c-0.931,0.415-2.002,0.74-3.779,0.74c-2.481,0-4.625-0.976-4.681-4.976h9.588
			c0.028,0,0.084-0.68,0.084-1.214C121.807,19.15,120.623,15.034,116.167,15.034z M112.163,21c0.197-2,1.297-4.235,3.807-4.235
			c2.792,0,3.469,2.235,3.44,4.235H112.163z"/>
		<path fill="#FFFFFF" d="M131.074,15.169c-2.256,0-3.939,0.831-4.616,2.831h-0.057l-0.141-3h-2.199c0.084,2-0.061,2.759-0.061,4.24
			V30h3v-8.924c0-0.444-0.116-0.889-0.003-1.214c0.423-1.451,1.451-2.666,3.086-2.666c2.34,0,2.917,1.925,2.917,4.235V30h3v-8.865
			C136,16.219,132.963,15.169,131.074,15.169z"/>
		<path fill="#FFFFFF" d="M142,11.243l-2,0.681V15h-3v2h3v8.164c0,1.688,0.037,2.961,0.742,3.731
			c0.592,0.711,1.415,1.096,2.571,1.096c0.959,0,1.666-0.148,2.146-0.355l-0.14-1.955c-0.31,0.089-0.799,0.178-1.448,0.178
			c-1.382,0-1.871-1.007-1.871-2.784V17h4v-2h-4V11.243z"/>
		<path fill="#FFFFFF" d="M152.876,15.034c-3.976,0-6.401,3.406-6.401,7.73c0,4.324,2.509,7.227,6.711,7.227
			c2.171,0,3.666-0.474,4.54-0.889l-0.423-1.866c-0.931,0.415-2.002,0.74-3.779,0.74c-2.481,0-4.625-0.976-4.681-4.976h9.588
			c0.028,0,0.084-0.68,0.084-1.214C158.516,19.15,157.332,15.034,152.876,15.034z M148.872,21c0.197-2,1.297-4.235,3.807-4.235
			c2.792,0,3.469,2.235,3.44,4.235H148.872z"/>
		<path fill="#FFFFFF" d="M163.139,18h-0.113l-0.084-3h-2.171c0.084,2,0.23,3.144,0.23,4.832V30h2v-7.946
			c0-0.444,0.225-0.859,0.281-1.214c0.338-1.955,1.852-3.347,3.601-3.347c0.338,0,0.119,0.029,1.119,0.089v-2.458
			c-1-0.059-0.612-0.176-0.894-0.176C165.442,14.947,163.759,16,163.139,18z"/>
		<path fill="#FFFFFF" d="M182.452,9.407c-5.076,0-8.826,4.146-8.826,10.485c0,6.042,3.525,10.129,8.544,10.129
			c4.85,0,8.826-3.643,8.826-10.514C190.996,13.583,187.641,9.407,182.452,9.407z M182.311,27.918c-3.863,0-6.062-3.821-6.062-8.086
			c0-4.383,2.03-8.322,6.091-8.322c4.088,0,6.062,4.146,6.062,8.115C188.402,24.156,186.202,27.918,182.311,27.918z"/>
		<path fill="#FFFFFF" d="M199.171,18.381c-2.622-1.066-3.778-1.984-3.778-3.85c0-1.362,0.987-2.991,3.581-2.991
			c1.72,0,2.989,0.592,3.609,0.948l0.677-2.103c-0.846-0.503-2.256-0.978-4.201-0.978c-3.694,0-6.147,2.311-6.147,5.42
			c0,2.813,1.917,4.501,5.02,5.657c2.566,1.037,3.581,2.103,3.581,3.969c0,2.014-1.466,3.406-3.976,3.406
			c-1.692,0-3.299-0.592-4.399-1.303l-0.62,2.162c1.015,0.711,3.017,1.274,4.85,1.274c4.484,0,6.655-2.666,6.655-5.746
			C204.021,21.313,202.386,19.684,199.171,18.381z"/>
	</g>
	<rect x="20" y="76" fill="#FFFFFF" width="1" height="0"/>
	<polygon fill="#FFFFFF" points="28.061,62.061 25.939,59.939 14,71.879 2.061,59.939 -0.061,62.061 11.879,74 -0.061,85.939 
		2.061,88.061 14,76.121 25.939,88.061 28.061,85.939 16.121,74 	"/>
	<rect x="94" y="76" fill="#FFFFFF" width="1" height="0"/>
	<g>
		<rect x="94.803" y="264.087" fill="#3CABC5" width="3.884" height="3.857"/>
		<rect x="95.121" y="264.362" fill="#3A4D54" width="0.301" height="3.256"/>
		<rect x="95.705" y="264.362" fill="#3A4D54" width="0.327" height="3.256"/>
		<rect x="96.289" y="264.362" fill="#3A4D54" width="0.327" height="3.256"/>
		<rect x="96.873" y="264.362" fill="#3A4D54" width="0.327" height="3.256"/>
		<rect x="97.457" y="264.362" fill="#3A4D54" width="0.327" height="3.256"/>
		<rect x="98.067" y="264.362" fill="#3A4D54" width="0.301" height="3.256"/>
		<g>
			<path fill="#FFFFFF" d="M124,307c0,2.761-2.239,5-5,5H77c-2.761,0-5-2.239-5-5v-42c0-2.761,2.239-5,5-5h42c2.761,0,5,2.239,5,5
				V307z"/>
			<g>
				<path id="docker_4_" fill="#3A4D54" d="M107.773,304.253c0.91-0.8,1.821-1.546,2.731-2.346c0.321-0.267,0.643-0.533,0.964-0.853
					c-0.268-0.32-0.643-0.533-1.017-0.693c-0.696-0.267-1.392-0.16-2.088,0.213c-0.857,0.48-1.232,1.28-1.178,2.24
					c0,0.373,0.107,0.747,0.321,1.066C107.612,304.039,107.666,304.146,107.773,304.253 M108.844,304.999
					c0.428,0.16,0.964,0.16,1.446,0.053c0.214-0.107,0.857-0.373,1.071-0.32h0.054h0.054c0.161,0.053,0.268,0.16,0.321,0.32
					c0.161,0.32,0.107,0.64-0.214,0.8l-0.107,0.053c-1.178,0.693-2.41,0.587-3.588-0.053c-0.535-0.32-0.964-0.747-1.285-1.28
					l-0.054-0.107c-0.75-1.28-0.643-2.666,0.214-3.893c0.268-0.427,0.696-0.747,1.125-1.013l0.161-0.107
					c1.125-0.64,2.303-0.587,3.427-0.053c0.589,0.32,1.125,0.747,1.446,1.333l0.054,0.107c0.268,0.427-0.054,0.8-0.428,1.066
					c-0.375,0.32-0.75,0.64-1.125,0.96C110.451,303.613,109.647,304.306,108.844,304.999z M117.573,299.133h0.107
					c0.375,0,0.643,0.267,0.643,0.64c0,0.533-0.482,0.64-0.91,0.64c-0.535,0-1.071,0.32-1.446,0.693
					c-0.482,0.48-0.696,1.066-0.696,1.706v2.986c0,0.32-0.214,0.64-0.589,0.64h-0.107c-0.375,0-0.589-0.267-0.589-0.64v-3.146
					c0-1.226,0.589-2.186,1.553-2.88C116.18,299.347,116.877,299.133,117.573,299.133z M102.204,301.213
					c0.482-0.48,0.964-0.96,1.446-1.44c0.161-0.107,0.643-0.693,0.857-0.693h0.214l0,0c0.268,0.053,0.482,0.213,0.482,0.533v0.107
					c0,0.213-0.268,0.427-0.375,0.587c-0.268,0.32-0.589,0.587-0.857,0.907l-1.499,1.493c0.643,0.64,1.285,1.28,1.928,1.92
					c0.161,0.16,0.375,0.373,0.535,0.533c0.054,0.053,0.161,0.16,0.214,0.213c0.054,0.107,0.107,0.16,0.107,0.267v0.107v0.053
					c-0.054,0.267-0.268,0.48-0.535,0.48h-0.107c-0.214,0-0.428-0.213-0.589-0.373c-0.268-0.267-0.589-0.533-0.857-0.853
					l-0.964-0.906v1.493c0,0.32-0.214,0.64-0.589,0.64h-0.107c-0.375,0-0.589-0.267-0.589-0.64v-8.212
					c0-0.32,0.214-0.587,0.589-0.587h0.107c0.375,0,0.589,0.267,0.589,0.587L102.204,301.213L102.204,301.213z M98.241,300.413
					c-0.161-0.107-0.535-0.107-0.75-0.107c-1.017-0.053-1.767,0.533-2.195,1.44c-0.161,0.32-0.214,0.64-0.214,1.013
					c0,1.067,0.535,1.813,1.499,2.24c0.321,0.16,0.803,0.213,1.178,0.213c0.321,0,0.803-0.213,1.071-0.32h0.054h0.214l0,0
					c0.268,0.053,0.482,0.213,0.482,0.533v0.107c0,0.747-1.392,0.907-1.874,0.96c-1.821,0.107-3.213-0.906-3.749-2.613
					c-0.107-0.32-0.107-0.587-0.107-0.906v-0.267c0-1.333,0.643-2.4,1.821-3.04c0.535-0.32,1.125-0.48,1.767-0.48h0.268
					c0.643,0,1.285,0.16,1.821,0.533l0.054,0.053l0.054,0.053c0.054,0.107,0.107,0.213,0.107,0.32v0.107
					c0,0.32-0.214,0.48-0.535,0.533l0,0h-0.054C98.777,300.68,98.402,300.466,98.241,300.413z M86.995,302.706
					c0,0.906,0.482,1.6,1.232,2.08c0.375,0.213,0.803,0.32,1.232,0.32c0.91,0,1.606-0.48,2.088-1.226
					c0.214-0.373,0.321-0.8,0.321-1.227c0-0.853-0.428-1.546-1.125-2.026c-0.375-0.267-0.857-0.373-1.285-0.373
					c-1.017,0-1.767,0.533-2.196,1.44C87.049,302.066,86.995,302.386,86.995,302.706z M89.298,299.08h0.161
					c1.446,0,2.517,0.693,3.213,1.92c0.268,0.48,0.428,1.013,0.428,1.6v0.267c0,1.333-0.643,2.4-1.821,3.04
					c-0.535,0.32-1.125,0.48-1.767,0.48h-0.268c-1.339,0-2.41-0.64-3.052-1.813c-0.321-0.533-0.482-1.12-0.482-1.76v-0.267
					c0-1.333,0.643-2.4,1.821-3.04C88.066,299.24,88.655,299.08,89.298,299.08z M78.909,302.706c0,0.96,0.482,1.706,1.339,2.133
					c0.321,0.16,0.696,0.267,1.125,0.267c0.964,0,1.66-0.427,2.142-1.226c0.214-0.373,0.321-0.8,0.321-1.227
					c0-0.853-0.375-1.493-1.071-1.973c-0.428-0.267-0.857-0.427-1.392-0.427c-1.017,0-1.767,0.533-2.196,1.44
					C78.963,302.066,78.909,302.386,78.909,302.706z M83.782,299.986v-2.613c0-0.32,0.214-0.64,0.589-0.64h0.107
					c0.375,0,0.589,0.267,0.589,0.64v5.493c0,1.333-0.643,2.4-1.821,3.04c-0.535,0.32-1.125,0.48-1.767,0.48h-0.268
					c-1.339,0-2.41-0.64-3.052-1.813c-0.321-0.533-0.482-1.12-0.482-1.76v-0.267c0-1.333,0.643-2.4,1.821-3.04
					c0.535-0.32,1.125-0.48,1.767-0.48h0.268C82.39,299.08,83.14,299.4,83.782,299.986z"/>
				<g>
					<path fill="#1D9FBE" d="M89.866,289.669c-1.279,0.078-2.189-0.48-2.058-0.977c0.149-0.602,1.007-1.055,2.032,0
						c0,0,0.403-1.378-0.779-2.032c-0.368-0.201-0.841-0.323-1.322-0.323c-1.025,0.009-2.111,0.532-2.487,1.927
						c-0.026,0.253-0.079,0.427-0.079,0.427c-1.033-1.029-1.883-0.576-2.014,0c-0.123,0.497,0.779,1.055,2.058,0.977
						c2.312-0.122,3.871,0.802,3.871,0.802h4.65C93.737,290.471,92.178,289.547,89.866,289.669z"/>
					<path fill="#1D9FBE" d="M85.225,289.669c-1.279,0.078-2.189-0.48-2.058-0.977c0.149-0.602,1.007-1.055,2.032,0
						c0,0,0.403-1.378-0.779-2.032c-0.368-0.201-0.841-0.323-1.322-0.323c-1.025,0.009-2.119,0.532-2.496,1.927
						c-0.026,0.253-0.079,0.427-0.079,0.427c-1.033-1.029-1.883-0.576-2.014,0c-0.123,0.497,0.779,1.055,2.058,0.977
						c2.312-0.122,3.871,0.802,3.871,0.802h4.659C89.096,290.471,87.537,289.547,85.225,289.669z"/>
					<path fill="#1D9FBE" d="M94.508,289.669c-1.279,0.078-2.189-0.48-2.058-0.977c0.149-0.602,1.007-1.055,2.032,0
						c0,0,0.403-1.378-0.779-2.032c-0.368-0.201-0.841-0.323-1.322-0.323c-1.016,0.009-2.111,0.532-2.487,1.927
						c-0.026,0.253-0.079,0.427-0.079,0.427c-1.033-1.029-1.883-0.576-2.014,0c-0.123,0.497,0.779,1.055,2.058,0.977
						c2.312-0.122,3.871,0.802,3.871,0.802h4.65C98.379,290.471,96.82,289.547,94.508,289.669z"/>
					<path fill="#299CC0" d="M84.297,289.119c-1.279,0.078-2.338,0.174-2.207-0.323c0.14-0.576-0.998-1.265-0.202-0.41
						c-0.315-0.323-1.191-1.177-2.137-1.692c-0.412-0.235-0.858-0.34-1.296-0.34c-1.743,0-3.337,1.622-2.076,3.34
						c0.631,0.549,1.83,0.828,3.415,0.828h4.65C84.445,290.523,86.609,288.997,84.297,289.119z"/>
					<path fill="#1D9FBE" d="M107.478,288.692c0,0-0.053-0.174-0.079-0.427c-0.377-1.395-1.471-1.919-2.496-1.919
						c-0.473,0-0.937,0.113-1.314,0.314c-1.182,0.654-0.779,2.032-0.779,2.032c1.033-1.055,1.883-0.602,2.032,0
						c0.123,0.497-0.779,1.055-2.058,0.977c-2.312-0.122-3.871,0.802-3.871,0.802h4.65c0,0,1.559-0.924,3.871-0.802
						c1.279,0.078,2.189-0.48,2.058-0.977C109.37,288.116,108.511,287.663,107.478,288.692z"/>
					<path fill="#299CC0" d="M110.605,288.491c0,0-0.079-0.253-0.096-0.654c-0.56-2.119-2.216-2.922-3.775-2.922
						c-0.744,0.009-1.471,0.192-2.041,0.497c-1.787,0.977-1.182,3.079-1.182,3.079c1.585-1.578,2.864-0.898,3.065,0
						c0.175,0.75-1.182,1.579-3.144,1.474c-3.521-0.201-5.903,1.23-5.903,1.23h7.067c0,0,2.391-1.43,5.903-1.23
						c1.936,0.096,3.319-0.724,3.144-1.474C113.468,287.619,112.19,286.939,110.605,288.491z"/>
					<path fill="#1D9FBE" d="M102.828,288.692c0,0-0.053-0.174-0.079-0.427c-0.377-1.395-1.471-1.919-2.496-1.919
						c-0.473,0-0.937,0.113-1.314,0.314c-1.182,0.654-0.779,2.032-0.779,2.032c1.033-1.055,1.883-0.602,2.032,0
						c0.123,0.497-0.779,1.055-2.058,0.977c-2.312-0.122-3.871,0.802-3.871,0.802h4.65c0,0,1.559-0.924,3.871-0.802
						c1.279,0.078,2.189-0.48,2.058-0.977C104.719,288.116,103.861,287.663,102.828,288.692z"/>
					<path fill="#32A7C2" d="M84.892,291.16c-1.077,0.052-1.83-0.401-1.734-0.829c0.123-0.497,0.832-0.872,1.681,0
						c0,0,0.324-1.151-0.657-1.701c-0.315-0.174-0.709-0.27-1.121-0.27c-0.858,0-1.76,0.436-2.067,1.596
						c0,0.201-0.053,0.349-0.053,0.349c-0.858-0.872-1.559-0.497-1.681,0.026c-0.096,0.427,0.657,0.872,1.734,0.828
						c1.935-0.096,3.24,0.68,3.24,0.68h3.897C88.132,291.84,86.828,291.064,84.892,291.16z"/>
					<path fill="#3CABC5" d="M81.608,291.16c-1.077,0.052-1.83-0.401-1.734-0.829c0.123-0.497,0.832-0.872,1.681,0
						c0,0,0.324-1.151-0.657-1.701c-0.315-0.174-0.709-0.27-1.121-0.27c-0.849,0-1.76,0.436-2.067,1.596
						c0,0.201-0.053,0.349-0.053,0.349c-0.858-0.872-1.559-0.497-1.681,0.026c-0.096,0.427,0.657,0.872,1.734,0.828
						c1.935-0.096,3.24,0.68,3.24,0.68h3.897C84.848,291.84,83.543,291.064,81.608,291.16z"/>
					<path fill="#32A7C2" d="M88.667,291.273c-1.077,0.052-1.83-0.401-1.734-0.828c0.123-0.497,0.832-0.872,1.681,0
						c0,0,0.324-1.151-0.657-1.701c-0.315-0.174-0.709-0.27-1.121-0.27c-0.008,0-0.017,0-0.025,0c-0.842,0-1.738,0.439-2.042,1.596
						c0,0.201-0.053,0.349-0.053,0.349c-0.876-0.872-1.585-0.497-1.681,0.026c-0.096,0.427,0.657,0.872,1.734,0.828
						c1.935-0.096,3.24,0.68,3.24,0.68h3.897C91.907,291.954,90.602,291.178,88.667,291.273z"/>
					<path fill="#78C5DB" d="M78.902,291.16c-1.077,0.052-1.83-0.401-1.734-0.829c0.123-0.497,0.832-0.872,1.681,0
						c0,0,0.324-1.151-0.657-1.701c-0.324-0.174-0.683-0.253-1.042-0.253c-1.471,0-2.837,1.352-1.769,2.782
						c0.525,0.453,1.559,0.68,2.864,0.68h3.897C82.142,291.84,80.837,291.064,78.902,291.16z"/>
					<path fill="#299CC0" d="M104.816,290.044c0,0-0.053-0.227-0.079-0.523c-0.455-1.744-1.787-2.398-3.021-2.398
						c-0.016,0-0.032,0-0.048,0c-0.561,0-1.111,0.147-1.546,0.393c-1.436,0.802-0.928,2.529-0.928,2.529
						c1.252-1.299,2.286-0.75,2.461,0c0.149,0.628-0.954,1.299-2.513,1.23c-2.811-0.148-4.703,1.003-4.703,1.003h5.657
						c0,0,1.988-0.828,4.773-0.68c1.559,0.096,2.592-0.924,2.435-1.552C107.102,289.294,106.068,288.744,104.816,290.044z"/>
					<path fill="#3CABC5" d="M100.2,290.419c0,0-0.053-0.148-0.053-0.349c-0.307-1.169-1.217-1.605-2.067-1.605
						c-0.412,0-0.814,0.105-1.121,0.279c-0.981,0.549-0.657,1.701-0.657,1.701c0.858-0.872,1.559-0.497,1.681,0
						c0.096,0.427-0.657,0.872-1.734,0.829c-1.935-0.096-3.24,0.68-3.24,0.68h3.897c0,0,1.305-0.776,3.24-0.68
						c1.077,0.052,1.83-0.401,1.734-0.829C101.759,289.922,101.05,289.547,100.2,290.419z"/>
					<path fill="#238BB5" d="M79.541,285.387l0.324,0.602c0.201,0.349,0.429,0.68,0.674,1.003c1.182,0.078,2.233,0.096,3.24,0.078
						c1.935-0.052,3.521-0.279,4.72-0.68c0.175-0.052,0.377,0.026,0.429,0.201c0.052,0.174-0.026,0.375-0.201,0.427
						c-0.149,0.052-0.324,0.096-0.499,0.148c-0.955,0.279-2.032,0.453-3.345,0.549h-0.175c-0.499,0.026-1.06,0.052-1.629,0.052
						c-0.631,0-1.252,0-1.936-0.052c2.365,2.651,6.104,4.256,10.728,4.256c8.416,0,15.729-3.183,19.976-10.221l-33.437,0.009
						C78.587,283.058,78.963,284.288,79.541,285.387z"/>
					<path fill="#3A4D54" d="M115.246,274.076c-0.228-1.779-1.384-3.331-2.785-4.456l-0.552-0.453l-0.482,0.523
						c-0.928,1.073-1.209,2.878-1.077,4.256c0.079,1.003,0.403,2.032,1.034,2.852c-0.482,0.279-1.034,0.497-1.506,0.68
						c-0.981,0.349-2.058,0.523-3.091,0.523h-2.233v-4.509h-4.423l-0.026-0.026V264.5h-5.333v4.535h-8.872v4.43h-4.423v4.509h-3.792
						l-0.053,0.68c-0.035,0.436-0.061,0.863-0.061,1.299v0.017c0,1.788,0.342,3.567,1.086,5.198l0.403,0.802l0.053,0.078
						c2.715,4.631,7.54,6.584,12.769,6.584c10.15,0,18.496-4.509,22.341-14.05c2.592,0.148,5.202-0.602,6.454-3.052l0.324-0.628
						l-0.604-0.349C118.916,273.701,116.928,273.579,115.246,274.076z"/>
					<path fill="#2193C1" d="M78.368,278.75c-0.228,2.433,0.201,4.657,1.182,6.584l0.324,0.602c0.202,0.349,0.429,0.68,0.674,1.003
						c1.182,0.078,2.233,0.096,3.24,0.078c1.936-0.052,3.521-0.279,4.72-0.68c0.175-0.052,0.377,0.026,0.429,0.201
						c0.053,0.174-0.026,0.375-0.201,0.427c-0.149,0.052-0.324,0.096-0.499,0.148c-0.954,0.279-1.962,0.454-3.267,0.523h-0.079
						h-0.149c-0.499,0.026-1.077,0.026-1.638,0.026c-0.631,0-1.235,0-1.909-0.052H81.17c2.365,2.651,6.078,4.23,10.702,4.23
						c9.826,0,18.163-4.334,21.833-14.076c2.61,0.279,5.123-0.401,6.279-2.625c-1.813-0.977-4.169-0.654-5.5,0.026
						c0.298-2.302-1.436-4.108-2.513-4.98c-1.217,1.43-1.419,5.154,0.517,6.733c-1.077,0.951-3.363,1.831-5.701,1.831L78.368,278.75
						L78.368,278.75z"/>
					<g>
						<path fill="#209DC6" d="M84.848,287.637l0.026,0.026h0.018C84.875,287.654,84.857,287.646,84.848,287.637z"/>
						<path fill="#209DC6" d="M111.988,270.186c-1.235,1.43-1.436,5.154,0.499,6.733c-1.077,0.951-3.363,1.831-5.701,1.831H80.049
							c-0.123,3.733,1.279,6.532,3.722,8.268c1.936-0.052,3.521-0.279,4.72-0.68c0.175-0.052,0.377,0.026,0.429,0.201
							c0.053,0.174-0.026,0.375-0.202,0.427c-0.149,0.052-0.324,0.096-0.499,0.148c-0.946,0.27-2.023,0.471-3.319,0.549
							c3.337,1.674,8.171,1.666,13.697-0.453c6.235-2.381,12.033-6.933,16.079-12.122c-0.079,0.078-0.123,0.078-0.175,0.078
							C114.8,272.863,113.065,271.058,111.988,270.186z"/>
					</g>
					<rect x="86.661" y="269.872" fill="#299CC0" width="3.845" height="3.802"/>
					<rect x="86.976" y="270.073" fill="#3A4D54" width="0.298" height="3.209"/>
					<rect x="87.554" y="270.073" fill="#3A4D54" width="0.324" height="3.209"/>
					<rect x="88.132" y="270.073" fill="#3A4D54" width="0.324" height="3.209"/>
					<rect x="88.71" y="270.073" fill="#3A4D54" width="0.324" height="3.209"/>
					<rect x="89.288" y="270.073" fill="#3A4D54" width="0.324" height="3.209"/>
					<rect x="89.893" y="270.073" fill="#3A4D54" width="0.298" height="3.209"/>
					<rect x="86.661" y="274.285" fill="#3CABC5" width="3.845" height="3.829"/>
					<rect x="86.976" y="274.52" fill="#3A4D54" width="0.298" height="3.209"/>
					<rect x="87.554" y="274.52" fill="#3A4D54" width="0.324" height="3.209"/>
					<rect x="88.132" y="274.52" fill="#3A4D54" width="0.324" height="3.209"/>
					<rect x="88.71" y="274.52" fill="#3A4D54" width="0.324" height="3.209"/>
					<rect x="89.288" y="274.52" fill="#3A4D54" width="0.324" height="3.209"/>
					<rect x="89.893" y="274.52" fill="#3A4D54" width="0.298" height="3.209"/>
					<rect x="82.238" y="274.285" fill="#299CC0" width="3.845" height="3.829"/>
					<rect x="82.58" y="274.52" fill="#3A4D54" width="0.298" height="3.209"/>
					<rect x="83.158" y="274.52" fill="#3A4D54" width="0.324" height="3.209"/>
					<rect x="83.736" y="274.52" fill="#3A4D54" width="0.324" height="3.209"/>
					<rect x="84.314" y="274.52" fill="#3A4D54" width="0.324" height="3.209"/>
					<rect x="84.892" y="274.52" fill="#3A4D54" width="0.324" height="3.209"/>
					<rect x="85.496" y="274.52" fill="#3A4D54" width="0.298" height="3.209"/>
					<rect x="91.11" y="269.872" fill="#3CABC5" width="3.845" height="3.802"/>
					<rect x="91.373" y="270.073" fill="#3A4D54" width="0.298" height="3.209"/>
					<rect x="91.951" y="270.073" fill="#3A4D54" width="0.324" height="3.209"/>
					<rect x="92.529" y="270.073" fill="#3A4D54" width="0.324" height="3.209"/>
					<rect x="93.107" y="270.073" fill="#3A4D54" width="0.324" height="3.209"/>
					<rect x="93.685" y="270.073" fill="#3A4D54" width="0.324" height="3.209"/>
					<rect x="94.289" y="270.073" fill="#3A4D54" width="0.298" height="3.209"/>
					<rect x="91.11" y="274.285" fill="#299CC0" width="3.845" height="3.829"/>
					<rect x="91.408" y="274.52" fill="#3A4D54" width="0.298" height="3.209"/>
					<rect x="91.986" y="274.52" fill="#3A4D54" width="0.324" height="3.209"/>
					<rect x="92.564" y="274.52" fill="#3A4D54" width="0.324" height="3.209"/>
					<rect x="93.142" y="274.52" fill="#3A4D54" width="0.324" height="3.209"/>
					<rect x="93.72" y="274.52" fill="#3A4D54" width="0.324" height="3.209"/>
					<rect x="94.324" y="274.52" fill="#3A4D54" width="0.298" height="3.209"/>
					<rect x="95.533" y="269.872" fill="#299CC0" width="3.844" height="3.802"/>
					<rect x="95.848" y="270.134" fill="#3A4D54" width="0.298" height="3.209"/>
					<rect x="96.426" y="270.134" fill="#3A4D54" width="0.324" height="3.209"/>
					<rect x="97.004" y="270.134" fill="#3A4D54" width="0.324" height="3.209"/>
					<rect x="97.582" y="270.134" fill="#3A4D54" width="0.324" height="3.209"/>
					<rect x="98.16" y="270.134" fill="#3A4D54" width="0.324" height="3.209"/>
					<rect x="98.764" y="270.134" fill="#3A4D54" width="0.298" height="3.209"/>
					<rect x="95.533" y="274.285" fill="#3CABC5" width="3.844" height="3.829"/>
					<rect x="95.848" y="274.52" fill="#3A4D54" width="0.298" height="3.209"/>
					<rect x="96.426" y="274.52" fill="#3A4D54" width="0.324" height="3.209"/>
					<rect x="97.004" y="274.52" fill="#3A4D54" width="0.324" height="3.209"/>
					<rect x="97.582" y="274.52" fill="#3A4D54" width="0.324" height="3.209"/>
					<rect x="98.16" y="274.52" fill="#3A4D54" width="0.324" height="3.209"/>
					<rect x="98.764" y="274.52" fill="#3A4D54" width="0.298" height="3.209"/>
					<rect x="99.982" y="274.285" fill="#299CC0" width="3.845" height="3.829"/>
					<rect x="100.253" y="274.52" fill="#3A4D54" width="0.298" height="3.209"/>
					<rect x="100.831" y="274.52" fill="#3A4D54" width="0.324" height="3.209"/>
					<rect x="101.409" y="274.52" fill="#3A4D54" width="0.324" height="3.209"/>
					<rect x="101.987" y="274.52" fill="#3A4D54" width="0.324" height="3.209"/>
					<rect x="102.565" y="274.52" fill="#3A4D54" width="0.324" height="3.209"/>
					<rect x="103.161" y="274.52" fill="#3A4D54" width="0.298" height="3.209"/>
					<path fill="#D4E3E2" d="M90.278,284.279c-0.604,0.009-1.06,0.48-1.06,1.055c0,0.576,0.482,1.055,1.06,1.055
						c0.578,0,1.06-0.48,1.06-1.055C91.338,284.759,90.856,284.279,90.278,284.279z"/>
					<path fill="#3A4D54" d="M90.69,285.239c-0.149,0-0.298-0.122-0.298-0.296c0-0.122,0.053-0.227,0.149-0.279
						c-0.079-0.026-0.175-0.052-0.28-0.052c-0.412,0-0.744,0.323-0.744,0.776c0,0.401,0.324,0.75,0.753,0.75
						c0.403,0,0.753-0.323,0.753-0.75c0-0.122-0.026-0.201-0.053-0.297C90.917,285.169,90.821,285.239,90.69,285.239z"/>
					<path fill="#BFD8D7" d="M88.211,287.166c-0.981,0.27-2.137,0.445-3.512,0.523c-0.499,0.026-1.06,0.052-1.611,0.052
						c-0.657,0-1.331-0.026-2.058-0.052c2.408,2.407,5.377,4.256,10.851,4.282c0.403-0.026,0.806-0.026,1.209-0.026
						C90.453,290.689,89.017,289.015,88.211,287.166z"/>
					<path fill="#D4E3E2" d="M84.699,287.689c0.954,0.497,2.286,1.003,4.501,1.177c-0.35-0.497-0.701-1.099-0.981-1.701
						C87.23,287.436,86.057,287.611,84.699,287.689z"/>
					<path fill="#279FC0" d="M97.197,293.175c-1.349,0.052-2.251-0.349-2.172-0.732c0.158-0.82,0.955-1.256,1.865-0.768
						c-0.105-0.384-0.543-0.881-1.498-1.055c-0.149-0.026-0.315-0.044-0.49-0.044c-0.946,0-2.146,0.436-2.566,1.552
						c-0.026,0.183-0.079,0.314-0.079,0.314c-1.086-0.785-1.988-0.453-2.146,0c-0.131,0.366,0.832,0.785,2.172,0.732
						c2.435-0.087,4.116,0.602,4.116,0.602h4.913C101.313,293.776,99.657,293.061,97.197,293.175z"/>
					<path fill="#3CABC5" d="M93.457,293.053c-1.138,0.061-1.944-0.436-1.83-0.872c0.131-0.541,0.893-0.933,1.813,0
						c0,0,0.35-1.238-0.701-1.805c-0.333-0.174-0.753-0.279-1.191-0.279c-0.928,0.009-1.9,0.471-2.224,1.718
						c-0.018,0.218-0.061,0.366-0.061,0.366c-0.937-0.89-1.681-0.497-1.786,0c-0.105,0.436,0.701,0.933,1.83,0.872
						c2.076-0.131,3.468,0.715,3.468,0.715h4.151C96.925,293.768,95.506,292.939,93.457,293.053z"/>
					<path fill="#78C5DB" d="M90.952,292.948c-1.305,0.078-2.233-0.497-2.111-1.003c0.149-0.628,1.033-1.073,2.084,0
						c0,0,0.403-1.43-0.806-2.076c-0.42-0.227-0.876-0.323-1.322-0.323c-1.787,0-3.451,1.631-2.146,3.375
						c0.657,0.576,1.883,0.855,3.521,0.855h4.773C94.946,293.776,93.308,292.826,90.952,292.948z"/>
					<path fill="#3CABC5" d="M107.916,290.541c0,0-0.053-0.174-0.053-0.401c-0.359-1.334-1.401-1.84-2.373-1.84
						c-0.473,0.009-0.92,0.122-1.27,0.314c-1.13,0.628-0.753,1.927-0.753,1.927c0.981-1.003,1.813-0.576,1.935,0
						c0.123,0.48-0.753,1.003-1.988,0.924c-2.207-0.122-3.722,0.776-3.722,0.776h4.449c0,0,1.506-0.898,3.722-0.776
						c1.235,0.078,2.084-0.453,1.988-0.924C109.729,289.939,108.923,289.538,107.916,290.541z"/>
					<path fill="#78C5DB" d="M109.291,288.3c-0.42,0.009-0.841,0.105-1.235,0.314c-1.13,0.628-0.753,1.927-0.753,1.927
						c0.981-1.003,1.813-0.576,1.936,0c0.123,0.48-0.753,1.003-1.988,0.924c-2.207-0.122-3.722,0.776-3.722,0.776h4.449
						c1.506,0,2.689-0.279,3.293-0.776C112.496,289.843,110.955,288.3,109.291,288.3z"/>
				</g>
			</g>
		</g>
	</g>
	<g>
		<path fill="#FFFFFF" d="M70,323.269c0,3.717-3.013,6.731-6.731,6.731H6.731C3.013,330,0,326.987,0,323.269v-56.538
			C0,263.013,3.013,260,6.731,260h56.538c3.717,0,6.731,3.013,6.731,6.731V323.269z"/>
		<g>
			<path id="docker_3_" fill="#3A4D54" d="M48.156,319.571c1.225-1.077,2.451-2.082,3.676-3.159
				c0.432-0.359,0.865-0.718,1.298-1.149c-0.36-0.431-0.865-0.718-1.369-0.933c-0.937-0.359-1.874-0.215-2.811,0.287
				c-1.153,0.646-1.658,1.723-1.586,3.015c0,0.502,0.144,1.005,0.432,1.436C47.94,319.284,48.012,319.427,48.156,319.571
				 M49.598,320.576c0.577,0.215,1.298,0.215,1.946,0.072c0.288-0.144,1.153-0.503,1.442-0.431h0.072h0.072
				c0.216,0.072,0.361,0.215,0.433,0.431c0.216,0.431,0.144,0.861-0.288,1.077l-0.144,0.072c-1.586,0.933-3.244,0.79-4.83-0.072
				c-0.721-0.431-1.298-1.005-1.73-1.723l-0.072-0.144c-1.009-1.723-0.865-3.589,0.288-5.24c0.361-0.574,0.937-1.005,1.514-1.364
				l0.216-0.144c1.514-0.861,3.1-0.79,4.613-0.072c0.793,0.431,1.514,1.005,1.946,1.795l0.072,0.144
				c0.361,0.574-0.072,1.077-0.577,1.436c-0.505,0.431-1.009,0.861-1.514,1.292C51.76,318.709,50.679,319.643,49.598,320.576z
				 M61.348,312.679h0.144c0.505,0,0.865,0.359,0.865,0.861c0,0.718-0.649,0.862-1.225,0.862c-0.721,0-1.442,0.431-1.946,0.933
				c-0.649,0.646-0.937,1.436-0.937,2.297v4.02c0,0.431-0.288,0.861-0.793,0.861h-0.144c-0.505,0-0.793-0.359-0.793-0.861v-4.236
				c0-1.651,0.793-2.943,2.091-3.876C59.474,312.967,60.411,312.679,61.348,312.679z M40.659,315.479
				c0.649-0.646,1.298-1.292,1.946-1.938c0.216-0.144,0.865-0.933,1.153-0.933h0.288l0,0c0.361,0.072,0.649,0.287,0.649,0.718v0.144
				c0,0.287-0.361,0.574-0.505,0.79c-0.361,0.431-0.793,0.79-1.153,1.22l-2.018,2.01c0.865,0.861,1.73,1.723,2.595,2.584
				c0.216,0.215,0.505,0.503,0.721,0.718c0.072,0.072,0.216,0.215,0.288,0.287c0.072,0.144,0.144,0.215,0.144,0.359v0.144v0.072
				c-0.072,0.359-0.361,0.646-0.721,0.646h-0.144c-0.288,0-0.577-0.287-0.793-0.502c-0.361-0.359-0.793-0.718-1.153-1.149
				l-1.298-1.22v2.01c0,0.431-0.288,0.861-0.793,0.861h-0.144c-0.505,0-0.793-0.359-0.793-0.861v-11.055
				c0-0.431,0.288-0.79,0.793-0.79h0.144c0.505,0,0.793,0.359,0.793,0.79L40.659,315.479L40.659,315.479z M35.324,314.402
				c-0.216-0.144-0.721-0.144-1.009-0.144c-1.369-0.072-2.379,0.718-2.955,1.938c-0.216,0.431-0.288,0.861-0.288,1.364
				c0,1.436,0.721,2.441,2.018,3.015c0.432,0.215,1.081,0.287,1.586,0.287c0.432,0,1.081-0.287,1.442-0.431h0.072h0.288l0,0
				c0.361,0.072,0.649,0.287,0.649,0.718v0.143c0,1.005-1.874,1.22-2.523,1.292c-2.451,0.144-4.325-1.22-5.046-3.518
				c-0.144-0.431-0.144-0.79-0.144-1.22v-0.359c0-1.795,0.865-3.23,2.451-4.092c0.721-0.431,1.514-0.646,2.379-0.646h0.361
				c0.865,0,1.73,0.215,2.451,0.718l0.072,0.072l0.072,0.072c0.072,0.144,0.144,0.287,0.144,0.431v0.144
				c0,0.431-0.288,0.646-0.721,0.718l0,0H36.55C36.045,314.761,35.541,314.474,35.324,314.402z M20.186,317.489
				c0,1.22,0.649,2.154,1.658,2.8c0.505,0.287,1.081,0.431,1.658,0.431c1.225,0,2.162-0.646,2.811-1.651
				c0.288-0.502,0.432-1.077,0.432-1.651c0-1.148-0.577-2.082-1.514-2.728c-0.505-0.359-1.153-0.502-1.73-0.502
				c-1.37,0-2.379,0.718-2.956,1.938C20.258,316.627,20.186,317.058,20.186,317.489z M23.286,312.608h0.216
				c1.946,0,3.388,0.933,4.325,2.584c0.361,0.646,0.577,1.364,0.577,2.154v0.359c0,1.795-0.865,3.23-2.451,4.092
				c-0.721,0.431-1.514,0.646-2.379,0.646h-0.361c-1.802,0-3.244-0.861-4.109-2.441c-0.433-0.718-0.649-1.507-0.649-2.369v-0.359
				c0-1.795,0.865-3.23,2.451-4.092C21.628,312.823,22.421,312.608,23.286,312.608z M9.301,317.489c0,1.292,0.649,2.297,1.802,2.871
				c0.433,0.215,0.937,0.359,1.514,0.359c1.298,0,2.235-0.574,2.883-1.651c0.288-0.502,0.432-1.077,0.432-1.651
				c0-1.148-0.505-2.01-1.442-2.656c-0.577-0.359-1.153-0.574-1.874-0.574c-1.37,0-2.379,0.718-2.956,1.938
				C9.373,316.627,9.301,317.058,9.301,317.489z M15.861,313.828v-3.517c0-0.431,0.288-0.861,0.793-0.861h0.144
				c0.505,0,0.793,0.359,0.793,0.861v7.394c0,1.795-0.865,3.23-2.451,4.092c-0.721,0.431-1.514,0.646-2.379,0.646H12.4
				c-1.802,0-3.244-0.861-4.109-2.441c-0.432-0.718-0.649-1.507-0.649-2.369v-0.359c0-1.795,0.865-3.23,2.451-4.092
				c0.721-0.431,1.514-0.646,2.379-0.646h0.361C13.986,312.608,14.996,313.038,15.861,313.828z"/>
			<g>
				<path fill="#1D9FBE" d="M24.051,299.939c-1.721,0.106-2.947-0.646-2.77-1.315c0.2-0.81,1.356-1.421,2.735,0
					c0,0,0.542-1.855-1.049-2.736c-0.495-0.27-1.132-0.434-1.78-0.434c-1.379,0.012-2.841,0.716-3.348,2.595
					c-0.035,0.34-0.106,0.575-0.106,0.575c-1.391-1.385-2.535-0.775-2.712,0c-0.165,0.669,1.049,1.421,2.77,1.315
					c3.112-0.164,5.211,1.08,5.211,1.08h6.26C29.262,301.019,27.163,299.774,24.051,299.939z"/>
				<path fill="#1D9FBE" d="M17.803,299.939c-1.721,0.106-2.947-0.646-2.77-1.315c0.2-0.81,1.356-1.421,2.735,0
					c0,0,0.542-1.855-1.049-2.736c-0.495-0.27-1.132-0.434-1.78-0.434c-1.379,0.012-2.853,0.716-3.36,2.595
					c-0.035,0.34-0.106,0.575-0.106,0.575c-1.391-1.385-2.535-0.775-2.712,0c-0.165,0.669,1.049,1.421,2.77,1.315
					c3.112-0.164,5.211,1.08,5.211,1.08h6.272C23.014,301.019,20.915,299.774,17.803,299.939z"/>
				<path fill="#1D9FBE" d="M30.299,299.939c-1.721,0.106-2.947-0.646-2.77-1.315c0.2-0.81,1.356-1.421,2.735,0
					c0,0,0.542-1.855-1.049-2.736c-0.495-0.27-1.132-0.434-1.78-0.434c-1.368,0.012-2.841,0.716-3.348,2.595
					c-0.035,0.34-0.106,0.575-0.106,0.575c-1.391-1.385-2.535-0.775-2.712,0c-0.165,0.669,1.049,1.421,2.77,1.315
					c3.112-0.164,5.211,1.08,5.211,1.08h6.26C35.51,301.019,33.412,299.774,30.299,299.939z"/>
				<path fill="#299CC0" d="M16.553,299.199c-1.721,0.106-3.148,0.235-2.971-0.434c0.189-0.775-1.344-1.702-0.271-0.552
					c-0.424-0.434-1.603-1.585-2.876-2.277c-0.554-0.317-1.155-0.458-1.745-0.458c-2.346,0-4.492,2.183-2.794,4.496
					c0.849,0.74,2.464,1.115,4.598,1.115h6.26C16.753,301.089,19.665,299.035,16.553,299.199z"/>
				<path fill="#1D9FBE" d="M47.759,298.624c0,0-0.071-0.235-0.106-0.575c-0.507-1.878-1.981-2.583-3.36-2.583
					c-0.637,0-1.261,0.153-1.768,0.423c-1.592,0.88-1.049,2.736-1.049,2.736c1.391-1.421,2.535-0.81,2.735,0
					c0.165,0.669-1.049,1.421-2.77,1.315c-3.112-0.164-5.211,1.08-5.211,1.08h6.26c0,0,2.099-1.244,5.211-1.08
					c1.721,0.106,2.947-0.646,2.77-1.315C50.306,297.849,49.15,297.239,47.759,298.624z"/>
				<path fill="#299CC0" d="M51.968,298.354c0,0-0.106-0.34-0.13-0.88c-0.755-2.853-2.983-3.933-5.081-3.933
					c-1.002,0.012-1.981,0.258-2.747,0.669c-2.405,1.315-1.592,4.144-1.592,4.144c2.134-2.125,3.855-1.209,4.126,0
					c0.236,1.01-1.592,2.125-4.232,1.984c-4.739-0.27-7.946,1.655-7.946,1.655h9.514c0,0,3.218-1.925,7.946-1.655
					c2.606,0.129,4.468-0.974,4.232-1.984C55.823,297.18,54.102,296.264,51.968,298.354z"/>
				<path fill="#1D9FBE" d="M41.499,298.624c0,0-0.071-0.235-0.106-0.575c-0.507-1.878-1.981-2.583-3.36-2.583
					c-0.636,0-1.261,0.153-1.768,0.423c-1.592,0.88-1.049,2.736-1.049,2.736c1.391-1.421,2.535-0.81,2.735,0
					c0.165,0.669-1.049,1.421-2.77,1.315c-3.112-0.164-5.211,1.08-5.211,1.08h6.26c0,0,2.098-1.244,5.211-1.08
					c1.721,0.106,2.947-0.646,2.77-1.315C44.045,297.849,42.89,297.239,41.499,298.624z"/>
				<path fill="#32A7C2" d="M17.355,301.946c-1.45,0.07-2.464-0.54-2.334-1.115c0.165-0.669,1.12-1.174,2.264,0
					c0,0,0.436-1.55-0.884-2.289c-0.424-0.235-0.955-0.364-1.509-0.364c-1.155,0-2.37,0.587-2.782,2.148
					c0,0.27-0.071,0.47-0.071,0.47c-1.155-1.174-2.098-0.669-2.264,0.035c-0.13,0.575,0.884,1.174,2.334,1.115
					c2.605-0.129,4.362,0.916,4.362,0.916h5.246C21.717,302.862,19.96,301.817,17.355,301.946z"/>
				<path fill="#3CABC5" d="M12.934,301.946c-1.45,0.07-2.464-0.54-2.334-1.115c0.165-0.669,1.12-1.174,2.264,0
					c0,0,0.436-1.55-0.884-2.289c-0.424-0.235-0.955-0.364-1.509-0.364c-1.144,0-2.37,0.587-2.782,2.148
					c0,0.27-0.071,0.47-0.071,0.47c-1.155-1.174-2.098-0.669-2.264,0.035c-0.13,0.575,0.884,1.174,2.334,1.115
					c2.605-0.129,4.362,0.916,4.362,0.916h5.246C17.296,302.862,15.539,301.817,12.934,301.946z"/>
				<path fill="#32A7C2" d="M22.436,302.099c-1.45,0.07-2.464-0.54-2.334-1.115c0.165-0.669,1.12-1.174,2.264,0
					c0,0,0.436-1.55-0.884-2.289c-0.425-0.235-0.955-0.364-1.509-0.364c-0.011,0-0.022,0-0.033,0c-1.134,0-2.34,0.591-2.749,2.148
					c0,0.27-0.071,0.47-0.071,0.47c-1.179-1.174-2.134-0.669-2.264,0.035c-0.13,0.575,0.884,1.174,2.334,1.115
					c2.605-0.129,4.362,0.916,4.362,0.916h5.246C26.798,303.015,25.041,301.97,22.436,302.099z"/>
				<path fill="#78C5DB" d="M9.291,301.946c-1.45,0.07-2.464-0.54-2.334-1.115c0.165-0.669,1.12-1.174,2.264,0
					c0,0,0.436-1.55-0.884-2.289c-0.436-0.235-0.92-0.34-1.403-0.34c-1.981,0-3.82,1.82-2.381,3.745
					c0.707,0.61,2.098,0.916,3.855,0.916h5.246C13.653,302.862,11.896,301.817,9.291,301.946z"/>
				<path fill="#299CC0" d="M44.175,300.444c0,0-0.071-0.305-0.106-0.704c-0.613-2.348-2.405-3.228-4.067-3.228
					c-0.022,0-0.043,0-0.065,0c-0.756,0-1.496,0.198-2.081,0.529c-1.933,1.08-1.25,3.405-1.25,3.405c1.686-1.749,3.077-1.01,3.313,0
					c0.2,0.845-1.285,1.749-3.383,1.655c-3.784-0.2-6.331,1.35-6.331,1.35h7.616c0,0,2.676-1.115,6.425-0.916
					c2.098,0.129,3.49-1.245,3.277-2.09C47.252,299.434,45.861,298.694,44.175,300.444z"/>
				<path fill="#3CABC5" d="M37.962,300.948c0,0-0.071-0.2-0.071-0.47c-0.413-1.573-1.639-2.16-2.782-2.16
					c-0.554,0-1.096,0.141-1.509,0.376c-1.32,0.74-0.884,2.289-0.884,2.289c1.155-1.174,2.098-0.669,2.264,0
					c0.13,0.575-0.884,1.174-2.334,1.115c-2.605-0.129-4.362,0.916-4.362,0.916h5.246c0,0,1.757-1.045,4.362-0.916
					c1.45,0.07,2.464-0.54,2.334-1.115C40.061,300.279,39.106,299.774,37.962,300.948z"/>
				<path fill="#238BB5" d="M10.152,294.174l0.436,0.81c0.271,0.47,0.578,0.916,0.908,1.35c1.592,0.106,3.006,0.129,4.362,0.106
					c2.605-0.07,4.739-0.376,6.354-0.916c0.236-0.07,0.507,0.035,0.578,0.27c0.071,0.235-0.035,0.505-0.271,0.575
					c-0.2,0.07-0.436,0.129-0.672,0.2c-1.285,0.376-2.735,0.61-4.503,0.74h-0.236c-0.672,0.035-1.426,0.07-2.193,0.07
					c-0.849,0-1.686,0-2.606-0.07c3.183,3.569,8.217,5.729,14.442,5.729c11.33,0,21.173-4.285,26.891-13.759l-45.011,0.012
					C8.867,291.04,9.373,292.695,10.152,294.174z"/>
				<path fill="#3A4D54" d="M58.216,278.948c-0.307-2.395-1.863-4.485-3.749-5.999l-0.743-0.61l-0.648,0.704
					c-1.25,1.444-1.627,3.874-1.45,5.729c0.106,1.35,0.543,2.735,1.391,3.839c-0.648,0.376-1.391,0.669-2.028,0.916
					c-1.32,0.47-2.77,0.704-4.161,0.704h-3.006v-6.069h-5.954l-0.035-0.035v-12.069h-7.179v6.105H18.71v5.964h-5.954v6.069H7.652
					l-0.071,0.916c-0.047,0.587-0.083,1.162-0.083,1.749v0.023c0,2.407,0.46,4.801,1.462,6.997l0.542,1.08l0.071,0.106
					c3.655,6.234,10.15,8.864,17.189,8.864c13.664,0,24.899-6.069,30.074-18.913c3.49,0.2,7.003-0.81,8.689-4.109l0.436-0.845
					l-0.813-0.47C63.156,278.443,60.479,278.279,58.216,278.948z"/>
				<path fill="#2193C1" d="M8.572,285.241c-0.307,3.275,0.271,6.269,1.592,8.864l0.436,0.81c0.271,0.47,0.578,0.916,0.908,1.35
					c1.592,0.106,3.006,0.129,4.362,0.106c2.606-0.071,4.739-0.376,6.354-0.916c0.236-0.071,0.507,0.035,0.578,0.27
					c0.071,0.235-0.035,0.505-0.271,0.575c-0.2,0.071-0.436,0.129-0.672,0.2c-1.285,0.376-2.641,0.61-4.397,0.704h-0.106h-0.2
					c-0.672,0.035-1.45,0.035-2.205,0.035c-0.849,0-1.662,0-2.57-0.07h-0.035c3.183,3.569,8.182,5.694,14.406,5.694
					c13.227,0,24.451-5.835,29.391-18.948c3.513,0.376,6.897-0.54,8.453-3.534c-2.44-1.315-5.612-0.88-7.404,0.035
					c0.401-3.099-1.933-5.529-3.383-6.703c-1.639,1.925-1.91,6.938,0.696,9.063c-1.45,1.28-4.527,2.465-7.675,2.465L8.572,285.241
					L8.572,285.241z"/>
				<g>
					<path fill="#209DC6" d="M17.296,297.203l0.035,0.035h0.024C17.331,297.227,17.308,297.215,17.296,297.203z"/>
					<path fill="#209DC6" d="M53.83,273.712c-1.662,1.925-1.933,6.938,0.672,9.063c-1.45,1.28-4.527,2.465-7.675,2.465H10.835
						c-0.165,5.025,1.721,8.793,5.01,11.129c2.606-0.071,4.739-0.376,6.354-0.916c0.236-0.071,0.507,0.035,0.578,0.27
						c0.071,0.235-0.035,0.505-0.271,0.575c-0.2,0.071-0.436,0.129-0.672,0.2c-1.273,0.364-2.723,0.634-4.468,0.74
						c4.492,2.254,10.999,2.242,18.438-0.61c8.394-3.205,16.198-9.333,21.645-16.318c-0.106,0.106-0.165,0.106-0.236,0.106
						C57.615,277.316,55.28,274.886,53.83,273.712z"/>
				</g>
				<rect x="19.736" y="273.289" fill="#299CC0" width="5.175" height="5.119"/>
				<rect x="20.161" y="273.559" fill="#3A4D54" width="0.401" height="4.32"/>
				<rect x="20.939" y="273.559" fill="#3A4D54" width="0.436" height="4.32"/>
				<rect x="21.717" y="273.559" fill="#3A4D54" width="0.436" height="4.32"/>
				<rect x="22.495" y="273.559" fill="#3A4D54" width="0.436" height="4.32"/>
				<rect x="23.273" y="273.559" fill="#3A4D54" width="0.436" height="4.32"/>
				<rect x="24.086" y="273.559" fill="#3A4D54" width="0.401" height="4.32"/>
				<rect x="19.736" y="279.23" fill="#3CABC5" width="5.175" height="5.154"/>
				<rect x="20.161" y="279.547" fill="#3A4D54" width="0.401" height="4.32"/>
				<rect x="20.939" y="279.547" fill="#3A4D54" width="0.436" height="4.32"/>
				<rect x="21.717" y="279.547" fill="#3A4D54" width="0.436" height="4.32"/>
				<rect x="22.495" y="279.547" fill="#3A4D54" width="0.436" height="4.32"/>
				<rect x="23.273" y="279.547" fill="#3A4D54" width="0.436" height="4.32"/>
				<rect x="24.086" y="279.547" fill="#3A4D54" width="0.401" height="4.32"/>
				<rect x="13.783" y="279.23" fill="#299CC0" width="5.175" height="5.154"/>
				<rect x="14.242" y="279.547" fill="#3A4D54" width="0.401" height="4.32"/>
				<rect x="15.02" y="279.547" fill="#3A4D54" width="0.436" height="4.32"/>
				<rect x="15.799" y="279.547" fill="#3A4D54" width="0.436" height="4.32"/>
				<rect x="16.577" y="279.547" fill="#3A4D54" width="0.436" height="4.32"/>
				<rect x="17.355" y="279.547" fill="#3A4D54" width="0.436" height="4.32"/>
				<rect x="18.168" y="279.547" fill="#3A4D54" width="0.401" height="4.32"/>
				<rect x="25.725" y="273.289" fill="#3CABC5" width="5.175" height="5.119"/>
				<rect x="26.079" y="273.559" fill="#3A4D54" width="0.401" height="4.32"/>
				<rect x="26.857" y="273.559" fill="#3A4D54" width="0.436" height="4.32"/>
				<rect x="27.635" y="273.559" fill="#3A4D54" width="0.436" height="4.32"/>
				<rect x="28.413" y="273.559" fill="#3A4D54" width="0.436" height="4.32"/>
				<rect x="29.191" y="273.559" fill="#3A4D54" width="0.436" height="4.32"/>
				<rect x="30.004" y="273.559" fill="#3A4D54" width="0.401" height="4.32"/>
				<rect x="25.725" y="279.23" fill="#299CC0" width="5.175" height="5.154"/>
				<rect x="26.126" y="279.547" fill="#3A4D54" width="0.401" height="4.32"/>
				<rect x="26.904" y="279.547" fill="#3A4D54" width="0.436" height="4.32"/>
				<rect x="27.682" y="279.547" fill="#3A4D54" width="0.436" height="4.32"/>
				<rect x="28.46" y="279.547" fill="#3A4D54" width="0.436" height="4.32"/>
				<rect x="29.238" y="279.547" fill="#3A4D54" width="0.436" height="4.32"/>
				<rect x="30.052" y="279.547" fill="#3A4D54" width="0.401" height="4.32"/>
				<rect x="31.679" y="273.289" fill="#299CC0" width="5.175" height="5.119"/>
				<rect x="32.103" y="273.642" fill="#3A4D54" width="0.401" height="4.32"/>
				<rect x="32.881" y="273.642" fill="#3A4D54" width="0.436" height="4.32"/>
				<rect x="33.659" y="273.642" fill="#3A4D54" width="0.436" height="4.32"/>
				<rect x="34.437" y="273.642" fill="#3A4D54" width="0.436" height="4.32"/>
				<rect x="35.215" y="273.642" fill="#3A4D54" width="0.436" height="4.32"/>
				<rect x="36.029" y="273.642" fill="#3A4D54" width="0.401" height="4.32"/>
				<rect x="31.679" y="279.23" fill="#3CABC5" width="5.175" height="5.154"/>
				<rect x="32.103" y="279.547" fill="#3A4D54" width="0.401" height="4.32"/>
				<rect x="32.881" y="279.547" fill="#3A4D54" width="0.436" height="4.32"/>
				<rect x="33.659" y="279.547" fill="#3A4D54" width="0.436" height="4.32"/>
				<rect x="34.437" y="279.547" fill="#3A4D54" width="0.436" height="4.32"/>
				<rect x="35.215" y="279.547" fill="#3A4D54" width="0.436" height="4.32"/>
				<rect x="36.029" y="279.547" fill="#3A4D54" width="0.401" height="4.32"/>
				<rect x="37.667" y="279.23" fill="#299CC0" width="5.175" height="5.154"/>
				<rect x="38.033" y="279.547" fill="#3A4D54" width="0.401" height="4.32"/>
				<rect x="38.811" y="279.547" fill="#3A4D54" width="0.436" height="4.32"/>
				<rect x="39.589" y="279.547" fill="#3A4D54" width="0.436" height="4.32"/>
				<rect x="40.367" y="279.547" fill="#3A4D54" width="0.436" height="4.32"/>
				<rect x="41.145" y="279.547" fill="#3A4D54" width="0.436" height="4.32"/>
				<rect x="41.947" y="279.547" fill="#3A4D54" width="0.401" height="4.32"/>
				<path fill="#D4E3E2" d="M24.605,292.684c-0.814,0.012-1.427,0.646-1.427,1.421c0,0.775,0.648,1.421,1.427,1.421
					c0.778,0,1.426-0.646,1.426-1.421C26.032,293.329,25.383,292.684,24.605,292.684z"/>
				<path fill="#3A4D54" d="M25.159,293.975c-0.2,0-0.401-0.164-0.401-0.399c0-0.164,0.071-0.305,0.2-0.376
					c-0.106-0.035-0.236-0.071-0.377-0.071c-0.554,0-1.002,0.434-1.002,1.045c0,0.54,0.436,1.01,1.014,1.01
					c0.542,0,1.014-0.434,1.014-1.01c0-0.164-0.035-0.27-0.071-0.399C25.466,293.881,25.336,293.975,25.159,293.975z"/>
				<path fill="#BFD8D7" d="M21.823,296.569c-1.32,0.364-2.876,0.599-4.727,0.704c-0.672,0.035-1.427,0.07-2.169,0.07
					c-0.884,0-1.792-0.035-2.77-0.07c3.242,3.24,7.239,5.729,14.607,5.764c0.542-0.035,1.085-0.035,1.627-0.035
					C24.841,301.312,22.907,299.058,21.823,296.569z"/>
				<path fill="#D4E3E2" d="M17.095,297.274c1.285,0.669,3.077,1.35,6.06,1.585c-0.472-0.669-0.943-1.479-1.32-2.289
					C20.502,296.933,18.923,297.168,17.095,297.274z"/>
				<path fill="#279FC0" d="M33.919,304.658c-1.816,0.071-3.03-0.47-2.924-0.986c0.212-1.104,1.285-1.691,2.511-1.033
					c-0.141-0.516-0.731-1.186-2.016-1.421c-0.2-0.035-0.424-0.059-0.66-0.059c-1.273,0-2.888,0.587-3.454,2.09
					c-0.035,0.247-0.106,0.423-0.106,0.423c-1.462-1.057-2.676-0.61-2.888,0c-0.177,0.493,1.12,1.057,2.924,0.986
					c3.277-0.117,5.541,0.81,5.541,0.81h6.614C39.459,305.468,37.231,304.506,33.919,304.658z"/>
				<path fill="#3CABC5" d="M28.884,304.494c-1.533,0.082-2.617-0.587-2.464-1.174c0.177-0.728,1.202-1.256,2.44,0
					c0,0,0.472-1.667-0.943-2.43c-0.448-0.235-1.014-0.376-1.603-0.376c-1.25,0.012-2.558,0.634-2.994,2.313
					c-0.024,0.293-0.083,0.493-0.083,0.493c-1.261-1.197-2.264-0.669-2.405,0c-0.141,0.587,0.943,1.256,2.464,1.174
					c2.794-0.176,4.669,0.963,4.669,0.963h5.588C33.553,305.456,31.643,304.341,28.884,304.494z"/>
				<path fill="#78C5DB" d="M25.513,304.353c-1.756,0.106-3.006-0.669-2.841-1.35c0.2-0.845,1.391-1.444,2.806,0
					c0,0,0.542-1.925-1.085-2.794c-0.566-0.305-1.179-0.434-1.78-0.434c-2.405,0-4.645,2.195-2.888,4.543
					c0.884,0.775,2.535,1.151,4.739,1.151h6.425C30.889,305.468,28.684,304.189,25.513,304.353z"/>
				<path fill="#3CABC5" d="M48.348,301.113c0,0-0.071-0.235-0.071-0.54c-0.483-1.796-1.886-2.477-3.195-2.477
					c-0.636,0.012-1.238,0.164-1.709,0.423c-1.521,0.845-1.014,2.594-1.014,2.594c1.32-1.35,2.44-0.775,2.605,0
					c0.165,0.646-1.014,1.35-2.676,1.245c-2.971-0.164-5.01,1.045-5.01,1.045h5.989c0,0,2.028-1.209,5.01-1.045
					c1.662,0.106,2.806-0.61,2.676-1.245C50.789,300.303,49.704,299.763,48.348,301.113z"/>
				<path fill="#78C5DB" d="M50.199,298.096c-0.566,0.012-1.132,0.141-1.662,0.423c-1.521,0.845-1.014,2.594-1.014,2.594
					c1.32-1.35,2.44-0.775,2.606,0c0.165,0.646-1.014,1.35-2.676,1.244c-2.971-0.164-5.01,1.045-5.01,1.045h5.989
					c2.028,0,3.619-0.376,4.433-1.045C54.514,300.174,52.439,298.096,50.199,298.096z"/>
			</g>
		</g>
	</g>
	<g>
		<g transform="scale(0.1953125, 0.1953125)">
			<path fill="#FFFFFF" d="M0,609.282l0,81.92h81.92v-54.613h-5.851v-20.48H36.572l-1.463-6.827H0z M40.96,636.588l-2.926-13.653
				h32.183v13.653H40.96z"/>
		</g>
	</g>
	<g>
		<polygon fill="#FFFFFF" points="8,137 8,141 12,141 		"/>
		<polygon fill="#FFFFFF" points="7,137 0,137 0,153 12,153 12,142 7,142 		"/>
	</g>
	<g>
		<linearGradient id="SVGID_1_" gradientUnits="userSpaceOnUse" x1="0" y1="212" x2="30" y2="212">
			<stop  offset="0" style="stop-color:#3A7DB8"/>
			<stop  offset="1" style="stop-color:#3A7BB6"/>
		</linearGradient>
		<rect y="211" fill="url(#SVGID_1_)" width="30" height="2"/>
		<linearGradient id="SVGID_2_" gradientUnits="userSpaceOnUse" x1="0" y1="215" x2="30" y2="215">
			<stop  offset="0" style="stop-color:#3A7DB8"/>
			<stop  offset="1" style="stop-color:#3A7BB6"/>
		</linearGradient>
		<rect y="214" fill="url(#SVGID_2_)" width="30" height="2"/>
		<polygon fill="#87B928" points="0,217 0,219 12,219 12,241 14,241 14,219 14,217 12,217 		"/>
		<linearGradient id="SVGID_3_" gradientUnits="userSpaceOnUse" x1="0" y1="230.5" x2="11" y2="230.5">
			<stop  offset="0" style="stop-color:#3A7DB8"/>
			<stop  offset="1" style="stop-color:#3A7BB6"/>
		</linearGradient>
		<polygon fill="url(#SVGID_3_)" points="0,222 9,222 9,241 11,241 11,222 11,222 11,220 0,220 		"/>
		<polygon fill="#87B928" points="16,217 16,219 16,241 18,241 18,219 30,219 30,217 18,217 		"/>
		<linearGradient id="SVGID_4_" gradientUnits="userSpaceOnUse" x1="19" y1="230.5" x2="30" y2="230.5">
			<stop  offset="0" style="stop-color:#3A7DB8"/>
			<stop  offset="1" style="stop-color:#3A7BB6"/>
		</linearGradient>
		<polygon fill="url(#SVGID_4_)" points="19,222 19,222 19,241 21,241 21,222 30,222 30,220 19,220 		"/>
		<path fill="#FFFFFF" d="M41.033,220L35,236h2.732l1.749-5h6.091l1.748,5h2.709l-5.963-16H41.033z M40.234,229
			c0.193,0,0.386-1.054,0.579-1.583s0.384-1.026,0.573-1.547s0.378-1.028,0.567-1.55c0.189-0.521,0.38-1.1,0.573-1.64l2.27,6.32
			H40.234z"/>
		<path fill="#FFFFFF" d="M61.625,228.451c-0.444-0.355-0.949-0.66-1.517-0.915c-0.567-0.254-1.146-0.486-1.737-0.695
			c-0.591-0.208-1.169-0.411-1.737-0.607c-0.567-0.197-1.073-0.419-1.517-0.666s-0.801-0.535-1.071-0.863
			c-0.271-0.328-0.405-0.728-0.405-1.198c0-0.417,0.09-0.772,0.272-1.065c0.181-0.293,0.418-0.528,0.712-0.706
			s0.627-0.307,1.002-0.388c0.374-0.081,0.754-0.122,1.14-0.122c0.425,0,0.826,0.07,1.205,0.208
			c0.378,0.139,0.714,0.344,1.007,0.614c0.293,0.271,0.534,0.378,0.724,0.78c0.189,0.401,0.303,1.173,0.341,1.173h2.628
			c-0.031,0-0.092-0.555-0.185-0.965s-0.236-0.695-0.428-1.084c-0.193-0.39-0.438-0.703-0.735-1.055
			c-0.297-0.351-0.66-0.627-1.088-0.886c-0.429-0.259-0.929-0.451-1.5-0.605c-0.571-0.154-1.228-0.224-1.969-0.224
			c-0.841,0-1.611,0.098-2.31,0.287c-0.698,0.189-1.301,0.467-1.806,0.829c-0.505,0.363-0.897,0.813-1.175,1.35
			s-0.417,1.157-0.417,1.859c0,0.71,0.135,1.32,0.405,1.83c0.271,0.509,0.627,0.948,1.071,1.314c0.444,0.367,0.95,0.68,1.517,0.938
			c0.567,0.259,1.148,0.494,1.742,0.707c0.595,0.212,1.175,0.415,1.743,0.608s1.073,0.407,1.517,0.643s0.801,0.505,1.071,0.811
			c0.271,0.305,0.405,0.677,0.405,1.117c0,0.533-0.098,0.984-0.295,1.354c-0.197,0.371-0.459,0.672-0.788,0.903
			s-0.706,0.399-1.135,0.504c-0.428,0.104-0.878,0.156-1.349,0.156c-0.532,0-1.019-0.097-1.458-0.29
			c-0.44-0.193-0.824-0.463-1.152-0.811s-0.59-0.508-0.787-0.983C53.37,231.833,53.252,231,53.213,231h-2.628
			c0.016,0,0.11,0.931,0.284,1.464c0.174,0.532,0.407,0.896,0.701,1.339c0.293,0.444,0.641,0.775,1.042,1.119
			c0.401,0.344,0.835,0.604,1.303,0.843c0.467,0.239,0.959,0.405,1.476,0.528s1.042,0.178,1.575,0.178
			c0.888,0,1.708-0.11,2.461-0.323c0.752-0.212,1.401-0.529,1.945-0.945c0.544-0.417,0.968-0.937,1.273-1.559
			c0.305-0.621,0.458-1.341,0.458-2.16c0-0.687-0.135-1.276-0.405-1.766C62.426,229.229,62.069,228.806,61.625,228.451z"/>
		<path fill="#FFFFFF" d="M76.268,231.634c-0.247,0.525-0.562,0.998-0.944,1.407s-0.828,0.742-1.337,0.993
			c-0.509,0.25-1.077,0.378-1.702,0.378c-0.61,0-1.21-0.136-1.8-0.41c-0.591-0.274-1.12-0.692-1.586-1.256
			c-0.467-0.563-0.844-1.271-1.129-2.124c-0.286-0.853-0.429-1.858-0.429-3.016c0-0.857,0.12-1.673,0.359-2.449
			c0.239-0.776,0.577-1.455,1.013-2.038c0.436-0.583,0.956-1.048,1.558-1.395s1.266-0.521,1.992-0.521
			c1.142,0,2.082,0.428,2.819,1.007c0.737,0.579,1.314,1.791,1.731,2.791h2.675c-0.231-1-0.548-1.695-0.949-2.374
			c-0.402-0.679-0.899-1.333-1.494-1.823c-0.594-0.49-1.287-0.909-2.078-1.187c-0.792-0.278-1.692-0.434-2.704-0.434
			c-0.795,0-1.531,0.1-2.206,0.316c-0.675,0.216-1.293,0.513-1.853,0.899c-0.56,0.386-1.054,0.839-1.482,1.364
			c-0.429,0.525-0.79,1.099-1.083,1.725c-0.293,0.625-0.515,1.285-0.666,1.979c-0.15,0.694-0.226,1.401-0.226,2.118
			c0,1.39,0.177,2.634,0.532,3.734s0.859,2.032,1.511,2.796s1.443,1.347,2.374,1.748c0.93,0.401,1.97,0.603,3.121,0.603
			c0.996,0,1.897-0.168,2.704-0.504s1.509-0.793,2.107-1.372s1.092-1.273,1.482-2.057c0.39-0.783,0.669-1.531,0.839-2.531H76.8
			C76.692,231,76.514,231.109,76.268,231.634z"/>
	</g>
	<g>
		<g transform="scale(0.1953125, 0.1953125)">
			<path fill="#FFFFFF" d="M131.219,860.162H74.167c-1.05,0-1.902-0.85-1.902-1.902c0-1.05,0.852-1.902,1.902-1.902h57.052
				c1.05,0,1.902,0.852,1.902,1.902C133.12,859.312,132.268,860.162,131.219,860.162z M104.018,850.138
				c-0.744,0.744-1.947,0.744-2.689,0c-0.126-0.125-2.927-3.005-3.01-3.153l-21.712-21.712c-0.744-0.744-0.744-1.947,0-2.691
				c0.742-0.742,1.945-0.742,2.689,0l21.495,21.497v-48.576c0-1.05,0.852-1.902,1.902-1.902c1.05,0,1.902,0.852,1.902,1.902v48.68
				l21.495-21.497c0.744-0.744,1.947-0.744,2.689,0c0.744,0.744,0.744,1.945,0,2.689L104.018,850.138z"/>
		</g>
	</g>
	<g>
		<g>
			<g transform="scale(0.1953125, 0.1953125)">
				<path fill="#39B3EF" d="M59.403,860.162H2.351c-1.05,0-1.902-0.85-1.902-1.902c0-1.05,0.852-1.902,1.902-1.902h57.052
					c1.05,0,1.902,0.852,1.902,1.902C61.305,859.312,60.453,860.162,59.403,860.162z M32.203,850.138
					c-0.744,0.744-1.947,0.744-2.689,0c-0.126-0.125-2.927-3.005-3.01-3.153L4.791,825.273c-0.744-0.744-0.744-1.947,0-2.691
					c0.742-0.742,1.945-0.742,2.689,0l21.495,21.497v-48.576c0-1.05,0.852-1.902,1.902-1.902c1.05,0,1.902,0.852,1.902,1.902v48.68
					l21.495-21.497c0.744-0.744,1.947-0.744,2.689,0c0.744,0.744,0.744,1.945,0,2.689L32.203,850.138z"/>
			</g>
		</g>
	</g>
	<polygon fill="#FFFFFF" points="30,103 6.05,103 14.215,94.835 12.094,92.714 0.307,104.5 12.094,116.286 14.215,114.165 6.05,106 
		30,106 	"/>
	<polygon fill="#39B3EF" points="7,173 4,173 4,170 3,170 3,173 0,173 0,174 3,174 3,177 4,177 4,174 7,174 	"/>
	<polygon fill="#FFFFFF" points="16,173 13,173 13,170 12,170 12,173 9,173 9,174 12,174 12,177 13,177 13,174 16,174 	"/>
</g>
</svg>
