<?xml version="1.0" encoding="utf-8"?>
<!-- Generator: Adobe Illustrator 17.0.0, SVG Export Plug-In . SVG Version: 6.00 Build 0)  -->
<!DOCTYPE svg PUBLIC "-//W3C//DTD SVG 1.1//EN" "http://www.w3.org/Graphics/SVG/1.1/DTD/svg11.dtd">
<svg version="1.1" xmlns="http://www.w3.org/2000/svg" xmlns:xlink="http://www.w3.org/1999/xlink" x="0px" y="0px" width="16px"
	 height="16px" viewBox="0 0 16 16" enable-background="new 0 0 16 16" xml:space="preserve">
<g id="图层_2">
</g>
<g id="图层_1">
</g>
<g id="主机">
	<path fill="none" stroke="#999999" stroke-miterlimit="10" d="M7.25,13.062c0,1.105-0.768,2-1.714,2H2.964
		c-0.947,0-1.714-0.895-1.714-2v-10c0-1.105,0.768-2,1.714-2h2.571c0.947,0,1.714,0.895,1.714,2V13.062z"/>
	<path fill="none" stroke="#999999" stroke-miterlimit="10" d="M15.25,13c0,1.105-0.768,2-1.714,2h-2.571
		c-0.947,0-1.714-0.895-1.714-2V3c0-1.105,0.768-2,1.714-2h2.571c0.947,0,1.714,0.895,1.714,2V13z"/>
	<rect x="2.75" y="9.5" fill="#39B3EF" width="3" height="3"/>
	<rect x="10.75" y="9.5" fill="#39B3EF" width="3" height="3"/>
</g>
<g id="服务">
</g>
<g id="日志">
</g>
<g id="监控">
</g>
<g id="配置">
</g>
<g id="应用仓库">
</g>
<g id="用户">
</g>
</svg>
