<?xml version="1.0" encoding="utf-8"?>
<!-- Generator: Adobe Illustrator 17.0.0, SVG Export Plug-In . SVG Version: 6.00 Build 0)  -->
<!DOCTYPE svg PUBLIC "-//W3C//DTD SVG 1.1//EN" "http://www.w3.org/Graphics/SVG/1.1/DTD/svg11.dtd">
<svg version="1.1" xmlns="http://www.w3.org/2000/svg" xmlns:xlink="http://www.w3.org/1999/xlink" x="0px" y="0px" width="16px"
	 height="16px" viewBox="0 0 16 16" enable-background="new 0 0 16 16" xml:space="preserve">
<g id="图层_2">
</g>
<g id="图层_1">
</g>
<g id="主机">
</g>
<g id="服务">
</g>
<g id="日志">
</g>
<g id="监控">
</g>
<g id="配置">
</g>
<g id="应用仓库">
	<polyline fill="none" stroke="#999999" stroke-miterlimit="10" points="0,4.714 7.835,1 16,4.714 	"/>
	<line fill="none" stroke="#999999" stroke-miterlimit="10" x1="2" y1="4" x2="2" y2="15"/>
	<line fill="none" stroke="#999999" stroke-miterlimit="10" x1="14" y1="4" x2="14" y2="15"/>
	<rect x="4" y="6" fill="#39B3EF" width="3" height="3"/>
	<g>
		<path fill="#999999" d="M11,7v1h-1V7H11 M12,6H9v3h3V6L12,6z"/>
	</g>
	<g>
		<path fill="#999999" d="M6,12v1H5v-1H6 M7,11H4v3h3V11L7,11z"/>
	</g>
	<g>
		<path fill="#999999" d="M11,12v1h-1v-1H11 M12,11H9v3h3V11L12,11z"/>
	</g>
</g>
<g id="用户">
</g>
</svg>
