<?xml version="1.0" encoding="utf-8"?>
<!-- Generator: Adobe Illustrator 17.0.0, SVG Export Plug-In . SVG Version: 6.00 Build 0)  -->
<!DOCTYPE svg PUBLIC "-//W3C//DTD SVG 1.1//EN" "http://www.w3.org/Graphics/SVG/1.1/DTD/svg11.dtd">
<svg version="1.1" xmlns="http://www.w3.org/2000/svg" xmlns:xlink="http://www.w3.org/1999/xlink" x="0px" y="0px" width="206px"
	 height="397px" viewBox="-0.5 0 206 397" enable-background="new -0.5 0 206 397" xml:space="preserve">
<g id="图层_2_1_">
</g>
<g id="图层_1">
	<g id="图层_2">
		<g>
			<path fill="#39B3EF" d="M5.5,188v12c0,1.657,1.343,3,3,3h12c1.657,0,3-1.343,3-3v-12c0-1.657-1.343-3-3-3h-12
				C6.843,185,5.5,186.343,5.5,188z M18.5,194.578V191h1v3.625c0,0.492-0.064,0.811-0.035,0.957
				c0.049,0.234,0.128,0.422,0.314,0.564s0.421,0.213,0.744,0.213c0.328,0,0.566-0.067,0.732-0.201s0.213-0.299,0.247-0.494
				s-0.002-0.519-0.002-0.973V191h1v3.531c0,0.688,0.096,1.173,0.033,1.457s-0.114,0.523-0.282,0.719s-0.361,0.351-0.642,0.467
				s-0.633,0.174-1.086,0.174c-0.547,0-0.953-0.063-1.236-0.189s-0.502-0.291-0.666-0.492s-0.114-0.414-0.166-0.635
				C18.379,195.703,18.5,195.219,18.5,194.578z M12.5,191h2.215c0.703,0,1.162,0.291,1.375,0.348
				c0.328,0.086,0.603,0.404,0.824,0.691s0.332,0.725,0.332,1.181c0,0.352-0.064,0.712-0.191,0.952s-0.29,0.428-0.486,0.564
				s-0.396,0.182-0.6,0.227C15.693,195.018,15.293,195,14.77,195H14.5v2h-2V191z M11.266,192.047
				c0.26,0.245,0.456,0.596,0.586,1.055l-1.145,0.273c-0.068-0.297-0.209-0.531-0.424-0.703s-0.476-0.258-0.783-0.258
				c-0.424,0-0.769,0.152-1.033,0.457s-0.396,0.798-0.396,1.48c0,0.724,0.13,1.24,0.391,1.547s0.599,0.461,1.016,0.461
				c0.307,0,0.572-0.098,0.793-0.293s0.38-0.502,0.477-0.922l1.121,0.355c-0.172,0.625-0.458,1.089-0.857,1.393
				s-0.907,0.455-1.521,0.455c-0.76,0-1.385-0.26-1.875-0.779s-0.734-1.23-0.734-2.131c0-0.953,0.246-1.693,0.738-2.221
				s1.139-0.791,1.941-0.791C10.259,191.426,10.828,191.633,11.266,192.047z"/>
			<path fill="#39B3EF" d="M15.562,194.094c0.154-0.06,0.274-0.187,0.361-0.314s0.131-0.292,0.131-0.462
				c0-0.208-0.061-0.449-0.184-0.584s-0.277-0.289-0.465-0.323c-0.138-0.026-0.416-0.16-0.832-0.16H14.5v2h0.148
				C15.104,194.25,15.409,194.154,15.562,194.094z"/>
			<rect x="26.5" y="191" fill="#39B3EF" width="3" height="1"/>
			<rect x="11.5" y="206" fill="#39B3EF" width="1" height="3"/>
			<rect x="17.5" y="206" fill="#39B3EF" width="1" height="3"/>
			<rect x="13.5" y="206" fill="#39B3EF" width="1" height="3"/>
			<rect x="17.5" y="179" fill="#39B3EF" width="1" height="3"/>
			<rect x="15.5" y="206" fill="#39B3EF" width="1" height="3"/>
			<rect x="26.5" y="193" fill="#39B3EF" width="3" height="1"/>
			<rect x="26.5" y="197" fill="#39B3EF" width="3" height="1"/>
			<path fill="#39B3EF" d="M24.5,179h-5v3h3c2.209,0,4,1.791,4,4v4h3v-6C29.5,181.239,27.261,179,24.5,179z"/>
			<rect x="26.5" y="195" fill="#39B3EF" width="3" height="1"/>
			<rect x="-0.5" y="195" fill="#39B3EF" width="3" height="1"/>
			<rect x="-0.5" y="193" fill="#39B3EF" width="3" height="1"/>
			<path fill="#39B3EF" d="M2.5,202v-3h-3v5c0,2.761,2.239,5,5,5h6v-3h-4C4.291,206,2.5,204.209,2.5,202z"/>
			<rect x="15.5" y="179" fill="#39B3EF" width="1" height="3"/>
			<path fill="#39B3EF" d="M26.5,202c0,2.209-1.791,4-4,4h-3v3h5c2.761,0,5-2.239,5-5v-5h-3V202z"/>
			<rect x="-0.5" y="191" fill="#39B3EF" width="3" height="1"/>
			<rect x="-0.5" y="197" fill="#39B3EF" width="3" height="1"/>
			<rect x="11.5" y="179" fill="#39B3EF" width="1" height="3"/>
			<rect x="13.5" y="179" fill="#39B3EF" width="1" height="3"/>
			<path fill="#39B3EF" d="M2.5,186c0-2.209,1.791-4,4-4h4v-3h-6c-2.761,0-5,2.239-5,5v6h3V186z"/>
		</g>
		<g>
			<path fill="#F371A3" d="M56.5,179h-20c-2.761,0-5,2.239-5,5v3.643c0-2.564,2.239-4.643,5-4.643h20c2.761,0,5,2.079,5,4.643V184
				C61.5,181.239,59.261,179,56.5,179z"/>
			<path fill="#F371A3" d="M56.5,184h-20c-2.761,0-5,2.239-5,5v4.05c1.694,0.245,3,1.688,3,3.45s-1.306,3.205-3,3.45V204
				c0,2.761,2.239,5,5,5h3v-3h1v3h1v-3h1v3h1v-3h1v3h1v-3h1v3h1v-3h1v3h1v-3h1v3h1v-3h1v3h4c2.761,0,5-2.239,5-5v-4.05
				c-0.165,0.024-0.329,0.05-0.5,0.05c-1.933,0-3.5-1.567-3.5-3.5s1.567-3.5,3.5-3.5c0.171,0,0.335,0.027,0.5,0.05V189
				C61.5,186.239,59.261,184,56.5,184z M42.5,202h-3v-12h3V202z M47.5,202h-3v-12h3V202z M52.5,202h-3v-12h3V202z"/>
		</g>
		<g>
			<path fill="#F3A93A" d="M88.5,179h-20c-2.761,0-5,2.239-5,5v10c0,2.761,2.239,5,5,5h20c2.761,0,5-2.239,5-5v-10
				C93.5,181.239,91.261,179,88.5,179z M83,195h-9c-2.485,0-4.5-1.791-4.5-4c0-1.441,0.865-2.694,2.152-3.398
				c-0.09-0.354-0.152-0.72-0.152-1.102c0-2.485,2.015-4.5,4.5-4.5c1.806,0,3.353,1.071,4.069,2.606
				C80.432,184.233,80.938,184,81.5,184c1.105,0,2,0.895,2,2c0,0.374-0.109,0.72-0.288,1.019c2.385,0.101,4.288,1.836,4.288,3.981
				C87.5,193.209,85.485,195,83,195z"/>
			<path fill="#F3A93A" d="M88.5,200h-20c-2.761,0-5-2.239-5-5v9c0,2.761,2.239,5,5,5h20c2.761,0,5-2.239,5-5v-9
				C93.5,197.761,91.261,200,88.5,200z M78,206c-0.828,0-1.5-0.672-1.5-1.5s0.672-1.5,1.5-1.5s1.5,0.672,1.5,1.5S78.828,206,78,206z
				 M83,206c-0.828,0-1.5-0.672-1.5-1.5s0.672-1.5,1.5-1.5s1.5,0.672,1.5,1.5S83.828,206,83,206z M88,206
				c-0.828,0-1.5-0.672-1.5-1.5s0.672-1.5,1.5-1.5s1.5,0.672,1.5,1.5S88.828,206,88,206z"/>
		</g>
		<g>
			<path fill="#999999" d="M7,56.724c-4.136,0-7.5-3.364-7.5-7.5s3.364-7.5,7.5-7.5v1c-3.584,0-6.5,2.916-6.5,6.5s2.916,6.5,6.5,6.5
				s6.5-2.916,6.5-6.5h1C14.5,53.36,11.136,56.724,7,56.724z"/>
			<path fill="#39B3EF" d="M7,54.722c-1.409,0-2.817-0.536-3.889-1.608c-2.144-2.145-2.144-5.634,0-7.778
				c2.145-2.144,5.634-2.145,7.778,0l-0.707,0.707c-1.755-1.754-4.609-1.754-6.364,0c-1.754,1.754-1.754,4.61,0,6.364
				c1.755,1.754,4.609,1.754,6.364,0l0.707,0.707C9.817,54.186,8.409,54.722,7,54.722z"/>
			<path fill="#999999" d="M7,52.722c-0.896,0-1.793-0.341-2.475-1.023C3.864,51.038,3.5,50.159,3.5,49.224s0.364-1.814,1.025-2.475
				c1.364-1.365,3.586-1.365,4.95,0l-0.707,0.707c-0.975-0.975-2.562-0.975-3.536,0c-0.975,0.975-0.975,2.561,0,3.536
				s2.562,0.975,3.536,0l0.707,0.707C8.792,52.382,7.896,52.722,7,52.722z"/>
		</g>
		<g>
			<path fill="#999999" d="M135,56.724c-4.136,0-7.5-3.364-7.5-7.5s3.364-7.5,7.5-7.5s7.5,3.364,7.5,7.5S139.136,56.724,135,56.724z
				 M135,42.724c-3.584,0-6.5,2.916-6.5,6.5s2.916,6.5,6.5,6.5s6.5-2.916,6.5-6.5S138.584,42.724,135,42.724z"/>
			<circle fill="#39B3EF" cx="135" cy="47.224" r="2"/>
			<path fill="#39B3EF" d="M135,49.724c-1.379,0-2.5-1.122-2.5-2.5s1.121-2.5,2.5-2.5s2.5,1.122,2.5,2.5S136.379,49.724,135,49.724z
				 M135,45.724c-0.827,0-1.5,0.673-1.5,1.5s0.673,1.5,1.5,1.5s1.5-0.673,1.5-1.5S135.827,45.724,135,45.724z"/>
			<path fill="#999999" d="M139.136,55.224h-1v-1.182c0-1.83-1.488-3.318-3.317-3.318c-1.83,0-3.318,1.488-3.318,3.318v1.182h-1
				v-1.182c0-2.381,1.938-4.318,4.318-4.318s4.317,1.938,4.317,4.318V55.224z"/>
		</g>
		<g id="主机">
			<g>
				<path fill="#999999" d="M21.287,56.786h-2.572c-1.221,0-2.214-1.122-2.214-2.5v-10c0-1.378,0.993-2.5,2.214-2.5h2.571
					c1.221,0,2.214,1.122,2.214,2.5v10c0,0.653-0.22,1.271-0.622,1.74C22.458,56.516,21.893,56.786,21.287,56.786z M18.715,42.786
					c-0.669,0-1.214,0.673-1.214,1.5v10c0,0.827,0.544,1.5,1.214,1.5h2.572c0.669,0,1.214-0.673,1.214-1.5l-0.001-10
					c0-0.827-0.544-1.5-1.214-1.5H18.715z"/>
			</g>
			<g>
				<path fill="#999999" d="M29.287,56.724h-2.571c-1.222,0-2.215-1.122-2.215-2.5v-10c0-1.378,0.993-2.5,2.214-2.5h2.571
					c1.221,0,2.214,1.122,2.214,2.5v10c0.001,0.653-0.22,1.271-0.621,1.74C30.458,56.454,29.894,56.724,29.287,56.724z
					 M26.715,42.724c-0.669,0-1.214,0.673-1.214,1.5v10c0,0.827,0.545,1.5,1.215,1.5h2.571c0.669,0,1.214-0.673,1.214-1.5l-0.001-10
					c0-0.827-0.545-1.5-1.214-1.5H26.715z"/>
			</g>
			<g>
				<rect x="18.501" y="50.724" fill="#39B3EF" width="3" height="3"/>
			</g>
			<g>
				<rect x="26.501" y="50.724" fill="#39B3EF" width="3" height="3"/>
			</g>
		</g>
		<g id="服务">
			<g>
				<path fill="#999999" d="M46,56.724H36c-1.379,0-2.5-1.122-2.5-2.5v-10c0-1.378,1.121-2.5,2.5-2.5h10c1.379,0,2.5,1.122,2.5,2.5
					v10C48.5,55.603,47.379,56.724,46,56.724z M36,42.724c-0.827,0-1.5,0.673-1.5,1.5v10c0,0.827,0.673,1.5,1.5,1.5h10
					c0.827,0,1.5-0.673,1.5-1.5v-10c0-0.827-0.673-1.5-1.5-1.5H36z"/>
			</g>
			<g>
				<rect x="36" y="44.224" fill="#39B3EF" width="4" height="4"/>
			</g>
			<g>
				<rect x="42" y="44.224" fill="#39B3EF" width="4" height="4"/>
			</g>
			<g>
				<rect x="36" y="50.224" fill="#39B3EF" width="4" height="4"/>
			</g>
			<g>
				<rect x="42" y="50.224" fill="#39B3EF" width="4" height="4"/>
			</g>
		</g>
		<g id="日志">
			<g>
				<g>
					<path fill="#999999" d="M60.258,56.724h-6c-1.379,0-2.5-1.122-2.5-2.5v-1h1v1c0,0.827,0.673,1.5,1.5,1.5h6
						c0.827,0,1.5-0.673,1.5-1.5v-10c0-0.827-0.673-1.5-1.5-1.5h-6c-0.827,0-1.5,0.673-1.5,1.5v1h-1v-1c0-1.378,1.121-2.5,2.5-2.5h6
						c1.379,0,2.5,1.122,2.5,2.5v10C62.758,55.603,61.637,56.724,60.258,56.724z"/>
				</g>
				<g>
					<rect x="51.758" y="47.724" fill="#999999" width="1" height="3"/>
				</g>
			</g>
			<g>
				<rect x="50.758" y="45.724" fill="#999999" width="3" height="1"/>
			</g>
			<g>
				<rect x="50.758" y="51.724" fill="#999999" width="3" height="1"/>
			</g>
			<g>
				
					<rect x="55.258" y="49.224" transform="matrix(0.7071 -0.7071 0.7071 0.7071 -17.8647 57.3194)" fill="#39B3EF" width="10" height="2"/>
			</g>
		</g>
		<g>
			<g>
				<path fill="#999999" d="M81,56.224H69c-1.378,0-2.5-1.186-2.5-2.643V41.867h1v11.714c0,0.905,0.673,1.643,1.5,1.643h12V56.224z"
					/>
			</g>
			<g>
				<polygon fill="#39B3EF" points="69.098,53.205 68.236,52.699 71.252,47.552 74.916,49.562 79.581,42.367 80.419,42.911 
					75.25,50.886 71.624,48.897 				"/>
			</g>
		</g>
		<g id="配置">
			<g>
				<path fill="#999999" d="M90,56.224c-3.584,0-6.5-2.916-6.5-6.5c0-3.493,2.736-6.342,6.229-6.486l0.521-0.021v6.008h6.25v0.5
					C96.5,53.308,93.584,56.224,90,56.224z M89.25,44.283c-2.702,0.365-4.75,2.662-4.75,5.441c0,3.032,2.467,5.5,5.5,5.5
					c2.864,0,5.225-2.2,5.478-5H89.25V44.283z"/>
			</g>
			<g>
				<path fill="#39B3EF" d="M91.75,40.724v7h7C98.75,43.858,95.616,40.724,91.75,40.724z"/>
			</g>
		</g>
		<g id="应用仓库">
			<g>
				<polygon fill="#999999" points="118.506,47.169 110.552,43.551 102.927,47.166 102.5,46.262 110.544,42.449 118.92,46.259 				
					"/>
			</g>
			<g>
				<rect x="104.213" y="46" fill="#999999" width="1" height="11"/>
			</g>
			<g>
				<rect x="116.213" y="46" fill="#999999" width="1" height="11"/>
			</g>
			<g>
				<rect x="106.713" y="48" fill="#39B3EF" width="3" height="3"/>
			</g>
			<g>
				<g>
					<path fill="#999999" d="M113.713,49v1h-1v-1H113.713 M114.713,48h-3v3h3V48L114.713,48z"/>
				</g>
			</g>
			<g>
				<g>
					<path fill="#999999" d="M108.713,54v1h-1v-1H108.713 M109.713,53h-3v3h3V53L109.713,53z"/>
				</g>
			</g>
			<g>
				<g>
					<path fill="#999999" d="M113.713,54v1h-1v-1H113.713 M114.713,53h-3v3h3V53L114.713,53z"/>
				</g>
			</g>
		</g>
		<g id="用户">
		</g>
	</g>
	<g id="图层_1_1_">
		<g>
			<path fill="#FFFFFF" d="M26.861,8.603c0,0-13.437-7.648-15.19-8.604S8.163-0.267,8.163-0.267s-6.774,3.666-7.782,5.26
				C-0.629,6.585-0.5,9.081-0.5,9.081s0,8.632,0,14.847c0,6.084,0.294,6.562,0.294,6.562c1.727,7.515,10.857,8.018,10.857,8.018
				c3.102,0,5.385-1.035,6.946-2.149c-0.748,0.611-1.269,0.929-1.269,0.929s3.407-1.997,10.267-5.683
				c6.905-3.711,6.904-9.765,6.904-13.652C33.499,12.269,26.861,8.603,26.861,8.603z M1.929,6.547
				C1.942,6.551,1.95,6.554,1.95,6.554C1.943,6.55,1.936,6.55,1.929,6.547z M20.218,33.649c-3.159,0.059-5.806-1.437-5.806-1.437
				C9.385,29.218,9.5,24.646,9.5,24.646V10.74c1,0.469,1.779,0.868,2.253,1.105c2.127,1.062,11.223,5.789,11.273,13.384
				C23.05,28.854,21.735,31.657,20.218,33.649z"/>
			<path fill="#FFFFFF" d="M45.347,17.502c-1.047,0-1.77,0.096-2.847,0.224v10.572c0.538,0.08,1.496,0.128,2.437,0.128
				c1.989,0,3.587-0.542,4.544-1.547c0.956-0.989,1.482-2.423,1.482-4.178c0-1.738-0.546-2.982-1.457-3.859
				C48.611,17.965,47.245,17.502,45.347,17.502z M45.343,27.31c-0.516,0-1.228-0.016-1.228-0.08v-8.483
				c0-0.08,0.757-0.144,1.44-0.144c2.793,0,4.16,1.61,4.145,4.146C49.7,25.651,48.167,27.31,45.343,27.31z"/>
			<path fill="#FFFFFF" d="M57.576,23.594c0-1.547-0.622-3.157-2.869-3.157c-0.926,0-1.845,0.271-2.452,0.685l0.285,0.925
				c0.516-0.351,1.149-0.574,1.832-0.574c1.503,0,1.589,1.148,1.589,1.786v0.159c-2.692-0.016-4.347,1.005-4.347,2.87
				c0,1.116,0.795,2.247,2.283,2.247c1.048,0,1.873-0.579,2.283-1.118h0.045l0.107,1.077h1.215
				c-0.093-0.538,0.029-1.344,0.029-2.014V23.594z M55.961,25.731c0,0.144,0.056,0.303,0.011,0.446
				c-0.213,0.654-0.776,1.292-1.733,1.292c-0.683,0-1.325-0.431-1.325-1.34c0-1.499,1.971-1.77,3.047-1.738V25.731z"/>
			<path fill="#FFFFFF" d="M60.806,18.396l-1.615,0.367v1.656h-1.077v1.077h1.077v4.396c0,0.909,0.262,1.594,0.642,2.009
				c0.319,0.383,0.883,0.59,1.505,0.59c0.516,0,0.958-0.08,1.216-0.191l-0.045-1.053c-0.167,0.048-0.388,0.096-0.737,0.096
				c-0.744,0-0.965-0.542-0.965-1.499v-4.348h1.615v-1.077h-1.615V18.396z"/>
			<path fill="#FFFFFF" d="M68.883,23.594c0-1.547-0.515-3.157-2.762-3.157c-0.926,0-1.791,0.271-2.398,0.685l0.312,0.925
				c0.516-0.351,1.324-0.574,2.007-0.574c1.503,0,1.764,1.148,1.764,1.786v0.159c-3.231-0.016-4.509,1.005-4.509,2.87
				c0,1.116,0.714,2.247,2.202,2.247c1.048,0,1.792-0.579,2.202-1.118h0.045l0.107,1.077h1.215c-0.09-0.538-0.184-1.344-0.184-2.014
				V23.594z M67.806,25.731c0,0.144-0.106,0.303-0.151,0.446c-0.213,0.654-0.857,1.292-1.814,1.292c-0.683,0-1.204-0.431-1.204-1.34
				c0-1.499,1.553-1.77,3.169-1.738L67.806,25.731L67.806,25.731z"/>
			<path fill="#FFFFFF" d="M75.55,18.571c0.85,0,1.564,0.191,2.065,0.447l0.319-1.132c-0.349-0.191-1.154-0.479-2.429-0.479
				c-3.173,0-5.344,2.28-5.344,5.645c0,3.524,2.171,5.438,5.056,5.438c1.245,0,2.217-0.255,2.702-0.51l-0.272-1.101
				c-0.531,0.271-1.351,0.447-2.156,0.447c-2.49,0-3.932-1.691-3.932-4.321C71.557,20.182,73.151,18.571,75.55,18.571z"/>
			<path fill="#FFFFFF" d="M81.895,20.437c-2.141,0-3.446,1.834-3.446,4.162s1.351,3.891,3.613,3.891
				c1.169,0,1.974-0.255,2.444-0.479l-0.228-1.005c-0.501,0.223-1.078,0.398-2.035,0.398c-1.336,0-2.49-0.526-2.52-2.679h5.162
				c0.015,0,0.045-0.366,0.045-0.654C84.932,22.653,84.294,20.437,81.895,20.437z M79.739,23.649c0.106-1.077,0.698-2.28,2.05-2.28
				c1.503,0,1.868,1.203,1.852,2.28H79.739z"/>
			<path fill="#FFFFFF" d="M89.921,20.509c-1.215,0-2.121,0.447-2.485,1.524h-0.031l-0.076-1.615h-1.184
				c0.045,1.077-0.033,1.486-0.033,2.283v5.793h1.615V23.69c0-0.239-0.062-0.479-0.002-0.654c0.228-0.781,0.781-1.435,1.662-1.435
				c1.26,0,1.571,1.036,1.571,2.28v4.614h1.615v-4.773C92.573,21.075,90.938,20.509,89.921,20.509z"/>
			<path fill="#FFFFFF" d="M95.804,18.396l-1.077,0.367v1.656h-1.615v1.077h1.615v4.396c0,0.909,0.02,1.594,0.4,2.009
				c0.319,0.383,0.762,0.59,1.384,0.59c0.516,0,0.897-0.08,1.155-0.191l-0.075-1.053c-0.167,0.048-0.43,0.096-0.78,0.096
				c-0.744,0-1.007-0.542-1.007-1.499v-4.348h2.154v-1.077h-2.154V18.396z"/>
			<path fill="#FFFFFF" d="M101.66,20.437c-2.141,0-3.446,1.834-3.446,4.162s1.351,3.891,3.613,3.891
				c1.169,0,1.974-0.255,2.444-0.479l-0.228-1.005c-0.501,0.223-1.078,0.398-2.035,0.398c-1.336,0-2.49-0.526-2.52-2.679h5.162
				c0.015,0,0.045-0.366,0.045-0.654C104.697,22.653,104.059,20.437,101.66,20.437z M99.504,23.649
				c0.106-1.077,0.698-2.28,2.05-2.28c1.503,0,1.868,1.203,1.852,2.28H99.504z"/>
			<path fill="#FFFFFF" d="M107.186,22.034h-0.061l-0.045-1.615h-1.169c0.045,1.077,0.124,1.693,0.124,2.602v5.475h1.077v-4.278
				c0-0.239,0.121-0.463,0.151-0.654c0.182-1.053,0.997-1.802,1.939-1.802c0.182,0,0.064,0.016,0.602,0.048v-1.323
				c-0.538-0.032-0.33-0.095-0.481-0.095C108.426,20.39,107.519,20.957,107.186,22.034z"/>
			<path fill="#FFFFFF" d="M117.584,17.407c-2.733,0-4.752,2.232-4.752,5.645c0,3.253,1.898,5.454,4.6,5.454
				c2.611,0,4.752-1.961,4.752-5.661C122.185,19.655,120.378,17.407,117.584,17.407z M117.508,27.374
				c-2.08,0-3.264-2.057-3.264-4.354c0-2.36,1.093-4.481,3.28-4.481c2.201,0,3.264,2.232,3.264,4.369
				C120.788,25.348,119.603,27.374,117.508,27.374z"/>
			<path fill="#FFFFFF" d="M126.586,22.239c-1.412-0.574-2.034-1.068-2.034-2.073c0-0.733,0.531-1.61,1.928-1.61
				c0.926,0,1.609,0.319,1.943,0.51l0.365-1.132c-0.456-0.271-1.215-0.527-2.262-0.527c-1.989,0-3.31,1.244-3.31,2.918
				c0,1.515,1.032,2.423,2.703,3.046c1.382,0.558,1.928,1.132,1.928,2.137c0,1.084-0.789,1.834-2.141,1.834
				c-0.911,0-1.776-0.319-2.369-0.702l-0.334,1.164c0.546,0.383,1.624,0.686,2.611,0.686c2.414,0,3.583-1.435,3.583-3.094
				C129.197,23.817,128.317,22.94,126.586,22.239z"/>
		</g>
		<polygon fill="#FFFFFF" points="19.5,76 20.5,76 20.5,76 		"/>
		<polygon fill="#FFFFFF" points="27.561,62.061 25.439,59.939 13.5,71.879 1.561,59.939 -0.561,62.061 11.379,74 -0.561,85.939 
			1.561,88.061 13.5,76.121 25.439,88.061 27.561,85.939 15.621,74 		"/>
		<polygon fill="#FFFFFF" points="93.5,76 94.5,76 94.5,76 		"/>
		<g>
			<rect x="94.303" y="264.087" fill="#3CABC5" width="3.884" height="3.857"/>
			<rect x="94.621" y="264.362" fill="#3A4D54" width="0.301" height="3.256"/>
			<rect x="95.205" y="264.362" fill="#3A4D54" width="0.327" height="3.256"/>
			<rect x="95.789" y="264.362" fill="#3A4D54" width="0.327" height="3.256"/>
			<rect x="96.373" y="264.362" fill="#3A4D54" width="0.327" height="3.256"/>
			<rect x="96.957" y="264.362" fill="#3A4D54" width="0.327" height="3.256"/>
			<rect x="97.567" y="264.362" fill="#3A4D54" width="0.301" height="3.256"/>
			<g>
				<path fill="#FFFFFF" d="M123.5,307c0,2.761-2.239,5-5,5h-42c-2.761,0-5-2.239-5-5v-42c0-2.761,2.239-5,5-5h42
					c2.761,0,5,2.239,5,5V307z"/>
				<g>
					<path id="docker_4_" fill="#3A4D54" d="M107.273,304.253c0.91-0.8,1.821-1.546,2.731-2.346
						c0.321-0.267,0.643-0.533,0.964-0.853c-0.268-0.32-0.643-0.533-1.017-0.693c-0.696-0.267-1.392-0.16-2.088,0.213
						c-0.857,0.48-1.232,1.28-1.178,2.24c0,0.373,0.107,0.747,0.321,1.066C107.112,304.039,107.166,304.146,107.273,304.253
						 M108.344,304.999c0.428,0.16,0.964,0.16,1.446,0.053c0.214-0.107,0.857-0.373,1.071-0.32h0.054h0.054
						c0.161,0.053,0.268,0.16,0.321,0.32c0.161,0.32,0.107,0.64-0.214,0.8l-0.107,0.053c-1.178,0.693-2.41,0.587-3.588-0.053
						c-0.535-0.32-0.964-0.747-1.285-1.28l-0.054-0.107c-0.75-1.28-0.643-2.666,0.214-3.893c0.268-0.427,0.696-0.747,1.125-1.013
						l0.161-0.107c1.125-0.64,2.303-0.587,3.427-0.053c0.589,0.32,1.125,0.747,1.446,1.333l0.054,0.107
						c0.268,0.427-0.054,0.8-0.428,1.066c-0.375,0.32-0.75,0.64-1.125,0.96C109.951,303.613,109.147,304.306,108.344,304.999z
						 M117.073,299.133h0.107c0.375,0,0.643,0.267,0.643,0.64c0,0.533-0.482,0.64-0.91,0.64c-0.535,0-1.071,0.32-1.446,0.693
						c-0.482,0.48-0.696,1.066-0.696,1.706v2.986c0,0.32-0.214,0.64-0.589,0.64h-0.107c-0.375,0-0.589-0.267-0.589-0.64v-3.146
						c0-1.226,0.589-2.186,1.553-2.88C115.68,299.347,116.377,299.133,117.073,299.133z M101.704,301.213
						c0.482-0.48,0.964-0.96,1.446-1.44c0.161-0.107,0.643-0.693,0.857-0.693h0.214l0,0c0.268,0.053,0.482,0.213,0.482,0.533v0.107
						c0,0.213-0.268,0.427-0.375,0.587c-0.268,0.32-0.589,0.587-0.857,0.907l-1.499,1.493c0.643,0.64,1.285,1.28,1.928,1.92
						c0.161,0.16,0.375,0.373,0.535,0.533c0.054,0.053,0.161,0.16,0.214,0.213c0.054,0.107,0.107,0.16,0.107,0.267v0.107v0.053
						c-0.054,0.267-0.268,0.48-0.535,0.48h-0.107c-0.214,0-0.428-0.213-0.589-0.373c-0.268-0.267-0.589-0.533-0.857-0.853
						l-0.964-0.906v1.493c0,0.32-0.214,0.64-0.589,0.64h-0.107c-0.375,0-0.589-0.267-0.589-0.64v-8.212
						c0-0.32,0.214-0.587,0.589-0.587h0.107c0.375,0,0.589,0.267,0.589,0.587V301.213L101.704,301.213z M97.741,300.413
						c-0.161-0.107-0.535-0.107-0.75-0.107c-1.017-0.053-1.767,0.533-2.195,1.44c-0.161,0.32-0.214,0.64-0.214,1.013
						c0,1.067,0.535,1.813,1.499,2.24c0.321,0.16,0.803,0.213,1.178,0.213c0.321,0,0.803-0.213,1.071-0.32h0.054h0.214l0,0
						c0.268,0.053,0.482,0.213,0.482,0.533v0.107c0,0.747-1.392,0.907-1.874,0.96c-1.821,0.107-3.213-0.906-3.749-2.613
						c-0.107-0.32-0.107-0.587-0.107-0.906v-0.267c0-1.333,0.643-2.4,1.821-3.04c0.535-0.32,1.125-0.48,1.767-0.48h0.268
						c0.643,0,1.285,0.16,1.821,0.533l0.054,0.053l0.054,0.053c0.054,0.107,0.107,0.213,0.107,0.32v0.107
						c0,0.32-0.214,0.48-0.535,0.533l0,0h-0.054C98.277,300.68,97.902,300.466,97.741,300.413z M86.495,302.706
						c0,0.906,0.482,1.6,1.232,2.08c0.375,0.213,0.803,0.32,1.232,0.32c0.91,0,1.606-0.48,2.088-1.226
						c0.214-0.373,0.321-0.8,0.321-1.227c0-0.853-0.428-1.546-1.125-2.026c-0.375-0.267-0.857-0.373-1.285-0.373
						c-1.017,0-1.767,0.533-2.196,1.44C86.549,302.066,86.495,302.386,86.495,302.706z M88.798,299.08h0.161
						c1.446,0,2.517,0.693,3.213,1.92c0.268,0.48,0.428,1.013,0.428,1.6v0.267c0,1.333-0.643,2.4-1.821,3.04
						c-0.535,0.32-1.125,0.48-1.767,0.48h-0.268c-1.339,0-2.41-0.64-3.052-1.813c-0.321-0.533-0.482-1.12-0.482-1.76v-0.267
						c0-1.333,0.643-2.4,1.821-3.04C87.566,299.24,88.155,299.08,88.798,299.08z M78.409,302.706c0,0.96,0.482,1.706,1.339,2.133
						c0.321,0.16,0.696,0.267,1.125,0.267c0.964,0,1.66-0.427,2.142-1.226c0.214-0.373,0.321-0.8,0.321-1.227
						c0-0.853-0.375-1.493-1.071-1.973c-0.428-0.267-0.857-0.427-1.392-0.427c-1.017,0-1.767,0.533-2.196,1.44
						C78.463,302.066,78.409,302.386,78.409,302.706z M83.282,299.986v-2.613c0-0.32,0.214-0.64,0.589-0.64h0.107
						c0.375,0,0.589,0.267,0.589,0.64v5.493c0,1.333-0.643,2.4-1.821,3.04c-0.535,0.32-1.125,0.48-1.767,0.48h-0.268
						c-1.339,0-2.41-0.64-3.052-1.813c-0.321-0.533-0.482-1.12-0.482-1.76v-0.267c0-1.333,0.643-2.4,1.821-3.04
						c0.535-0.32,1.125-0.48,1.767-0.48h0.268C81.89,299.08,82.64,299.4,83.282,299.986z"/>
					<g>
						<path fill="#1D9FBE" d="M89.366,289.669c-1.279,0.078-2.189-0.48-2.058-0.977c0.149-0.602,1.007-1.055,2.032,0
							c0,0,0.403-1.378-0.779-2.032c-0.368-0.201-0.841-0.323-1.322-0.323c-1.025,0.009-2.111,0.532-2.487,1.927
							c-0.026,0.253-0.079,0.427-0.079,0.427c-1.033-1.029-1.883-0.576-2.014,0c-0.123,0.497,0.779,1.055,2.058,0.977
							c2.312-0.122,3.871,0.802,3.871,0.802h4.65C93.237,290.471,91.678,289.547,89.366,289.669z"/>
						<path fill="#1D9FBE" d="M84.725,289.669c-1.279,0.078-2.189-0.48-2.058-0.977c0.149-0.602,1.007-1.055,2.032,0
							c0,0,0.403-1.378-0.779-2.032c-0.368-0.201-0.841-0.323-1.322-0.323c-1.025,0.009-2.119,0.532-2.496,1.927
							c-0.026,0.253-0.079,0.427-0.079,0.427c-1.033-1.029-1.883-0.576-2.014,0c-0.123,0.497,0.779,1.055,2.058,0.977
							c2.312-0.122,3.871,0.802,3.871,0.802h4.659C88.596,290.471,87.037,289.547,84.725,289.669z"/>
						<path fill="#1D9FBE" d="M94.008,289.669c-1.279,0.078-2.189-0.48-2.058-0.977c0.149-0.602,1.007-1.055,2.032,0
							c0,0,0.403-1.378-0.779-2.032c-0.368-0.201-0.841-0.323-1.322-0.323c-1.016,0.009-2.111,0.532-2.487,1.927
							c-0.026,0.253-0.079,0.427-0.079,0.427c-1.033-1.029-1.883-0.576-2.014,0c-0.123,0.497,0.779,1.055,2.058,0.977
							c2.312-0.122,3.871,0.802,3.871,0.802h4.65C97.879,290.471,96.32,289.547,94.008,289.669z"/>
						<path fill="#299CC0" d="M83.797,289.119c-1.279,0.078-2.338,0.174-2.207-0.323c0.14-0.576-0.998-1.265-0.202-0.41
							c-0.315-0.323-1.191-1.177-2.137-1.692c-0.412-0.235-0.858-0.34-1.296-0.34c-1.743,0-3.337,1.622-2.076,3.34
							c0.631,0.549,1.83,0.828,3.415,0.828h4.65C83.945,290.523,86.109,288.997,83.797,289.119z"/>
						<path fill="#1D9FBE" d="M106.978,288.692c0,0-0.053-0.174-0.079-0.427c-0.377-1.395-1.471-1.919-2.496-1.919
							c-0.473,0-0.937,0.113-1.314,0.314c-1.182,0.654-0.779,2.032-0.779,2.032c1.033-1.055,1.883-0.602,2.032,0
							c0.123,0.497-0.779,1.055-2.058,0.977c-2.312-0.122-3.871,0.802-3.871,0.802h4.65c0,0,1.559-0.924,3.871-0.802
							c1.279,0.078,2.189-0.48,2.058-0.977C108.87,288.116,108.011,287.663,106.978,288.692z"/>
						<path fill="#299CC0" d="M110.105,288.491c0,0-0.079-0.253-0.096-0.654c-0.56-2.119-2.216-2.922-3.775-2.922
							c-0.744,0.009-1.471,0.192-2.041,0.497c-1.787,0.977-1.182,3.079-1.182,3.079c1.585-1.578,2.864-0.898,3.065,0
							c0.175,0.75-1.182,1.579-3.144,1.474c-3.521-0.201-5.903,1.23-5.903,1.23h7.067c0,0,2.391-1.43,5.903-1.23
							c1.936,0.096,3.319-0.724,3.144-1.474C112.968,287.619,111.69,286.939,110.105,288.491z"/>
						<path fill="#1D9FBE" d="M102.328,288.692c0,0-0.053-0.174-0.079-0.427c-0.377-1.395-1.471-1.919-2.496-1.919
							c-0.473,0-0.937,0.113-1.314,0.314c-1.182,0.654-0.779,2.032-0.779,2.032c1.033-1.055,1.883-0.602,2.032,0
							c0.123,0.497-0.779,1.055-2.058,0.977c-2.312-0.122-3.871,0.802-3.871,0.802h4.65c0,0,1.559-0.924,3.871-0.802
							c1.279,0.078,2.189-0.48,2.058-0.977C104.219,288.116,103.361,287.663,102.328,288.692z"/>
						<path fill="#32A7C2" d="M84.392,291.16c-1.077,0.052-1.83-0.401-1.734-0.829c0.123-0.497,0.832-0.872,1.681,0
							c0,0,0.324-1.151-0.657-1.701c-0.315-0.174-0.709-0.27-1.121-0.27c-0.858,0-1.76,0.436-2.067,1.596
							c0,0.201-0.053,0.349-0.053,0.349c-0.858-0.872-1.559-0.497-1.681,0.026c-0.096,0.427,0.657,0.872,1.734,0.828
							c1.935-0.096,3.24,0.68,3.24,0.68h3.897C87.632,291.84,86.328,291.064,84.392,291.16z"/>
						<path fill="#3CABC5" d="M81.108,291.16c-1.077,0.052-1.83-0.401-1.734-0.829c0.123-0.497,0.832-0.872,1.681,0
							c0,0,0.324-1.151-0.657-1.701c-0.315-0.174-0.709-0.27-1.121-0.27c-0.849,0-1.76,0.436-2.067,1.596
							c0,0.201-0.053,0.349-0.053,0.349c-0.858-0.872-1.559-0.497-1.681,0.026c-0.096,0.427,0.657,0.872,1.734,0.828
							c1.935-0.096,3.24,0.68,3.24,0.68h3.897C84.348,291.84,83.043,291.064,81.108,291.16z"/>
						<path fill="#32A7C2" d="M88.167,291.273c-1.077,0.052-1.83-0.401-1.734-0.828c0.123-0.497,0.832-0.872,1.681,0
							c0,0,0.324-1.151-0.657-1.701c-0.315-0.174-0.709-0.27-1.121-0.27c-0.008,0-0.017,0-0.025,0c-0.842,0-1.738,0.439-2.042,1.596
							c0,0.201-0.053,0.349-0.053,0.349c-0.876-0.872-1.585-0.497-1.681,0.026c-0.096,0.427,0.657,0.872,1.734,0.828
							c1.935-0.096,3.24,0.68,3.24,0.68h3.897C91.407,291.954,90.102,291.178,88.167,291.273z"/>
						<path fill="#78C5DB" d="M78.402,291.16c-1.077,0.052-1.83-0.401-1.734-0.829c0.123-0.497,0.832-0.872,1.681,0
							c0,0,0.324-1.151-0.657-1.701c-0.324-0.174-0.683-0.253-1.042-0.253c-1.471,0-2.837,1.352-1.769,2.782
							c0.525,0.453,1.559,0.68,2.864,0.68h3.897C81.642,291.84,80.337,291.064,78.402,291.16z"/>
						<path fill="#299CC0" d="M104.316,290.044c0,0-0.053-0.227-0.079-0.523c-0.455-1.744-1.787-2.398-3.021-2.398
							c-0.016,0-0.032,0-0.048,0c-0.561,0-1.111,0.147-1.546,0.393c-1.436,0.802-0.928,2.529-0.928,2.529
							c1.252-1.299,2.286-0.75,2.461,0c0.149,0.628-0.954,1.299-2.513,1.23c-2.811-0.148-4.703,1.003-4.703,1.003h5.657
							c0,0,1.988-0.828,4.773-0.68c1.559,0.096,2.592-0.924,2.435-1.552C106.602,289.294,105.568,288.744,104.316,290.044z"/>
						<path fill="#3CABC5" d="M99.7,290.419c0,0-0.053-0.148-0.053-0.349c-0.307-1.169-1.217-1.605-2.067-1.605
							c-0.412,0-0.814,0.105-1.121,0.279c-0.981,0.549-0.657,1.701-0.657,1.701c0.858-0.872,1.559-0.497,1.681,0
							c0.096,0.427-0.657,0.872-1.734,0.829c-1.935-0.096-3.24,0.68-3.24,0.68h3.897c0,0,1.305-0.776,3.24-0.68
							c1.077,0.052,1.83-0.401,1.734-0.829C101.259,289.922,100.55,289.547,99.7,290.419z"/>
						<path fill="#238BB5" d="M79.041,285.387l0.324,0.602c0.201,0.349,0.429,0.68,0.674,1.003c1.182,0.078,2.233,0.096,3.24,0.078
							c1.935-0.052,3.521-0.279,4.72-0.68c0.175-0.052,0.377,0.026,0.429,0.201c0.052,0.174-0.026,0.375-0.201,0.427
							c-0.149,0.052-0.324,0.096-0.499,0.148c-0.955,0.279-2.032,0.453-3.345,0.549h-0.175c-0.499,0.026-1.06,0.052-1.629,0.052
							c-0.631,0-1.252,0-1.936-0.052c2.365,2.651,6.104,4.256,10.728,4.256c8.416,0,15.729-3.183,19.976-10.221l-33.437,0.009
							C78.087,283.058,78.463,284.288,79.041,285.387z"/>
						<path fill="#3A4D54" d="M114.746,274.076c-0.228-1.779-1.384-3.331-2.785-4.456l-0.552-0.453l-0.482,0.523
							c-0.928,1.073-1.209,2.878-1.077,4.256c0.079,1.003,0.403,2.032,1.034,2.852c-0.482,0.279-1.034,0.497-1.506,0.68
							c-0.981,0.349-2.058,0.523-3.091,0.523h-2.233v-4.509h-4.423l-0.026-0.026V264.5h-5.333v4.535H85.4v4.43h-4.423v4.509h-3.792
							l-0.053,0.68c-0.035,0.436-0.061,0.863-0.061,1.299v0.017c0,1.788,0.342,3.567,1.086,5.198l0.403,0.802l0.053,0.078
							c2.715,4.631,7.54,6.584,12.769,6.584c10.15,0,18.496-4.509,22.341-14.05c2.592,0.148,5.202-0.602,6.454-3.052l0.324-0.628
							l-0.604-0.349C118.416,273.701,116.428,273.579,114.746,274.076z"/>
						<path fill="#2193C1" d="M77.868,278.75c-0.228,2.433,0.201,4.657,1.182,6.584l0.324,0.602c0.202,0.349,0.429,0.68,0.674,1.003
							c1.182,0.078,2.233,0.096,3.24,0.078c1.936-0.052,3.521-0.279,4.72-0.68c0.175-0.052,0.377,0.026,0.429,0.201
							c0.053,0.174-0.026,0.375-0.201,0.427c-0.149,0.052-0.324,0.096-0.499,0.148c-0.954,0.279-1.962,0.454-3.267,0.523h-0.079
							h-0.149c-0.499,0.026-1.077,0.026-1.638,0.026c-0.631,0-1.235,0-1.909-0.052H80.67c2.365,2.651,6.078,4.23,10.702,4.23
							c9.826,0,18.163-4.334,21.833-14.076c2.61,0.279,5.123-0.401,6.279-2.625c-1.813-0.977-4.169-0.654-5.5,0.026
							c0.298-2.302-1.436-4.108-2.513-4.98c-1.217,1.43-1.419,5.154,0.517,6.733c-1.077,0.951-3.363,1.831-5.701,1.831
							L77.868,278.75L77.868,278.75z"/>
						<g>
							<path fill="#209DC6" d="M84.348,287.637l0.026,0.026h0.018C84.375,287.654,84.357,287.646,84.348,287.637z"/>
							<path fill="#209DC6" d="M111.488,270.186c-1.235,1.43-1.436,5.154,0.499,6.733c-1.077,0.951-3.363,1.831-5.701,1.831H79.549
								c-0.123,3.733,1.279,6.532,3.722,8.268c1.936-0.052,3.521-0.279,4.72-0.68c0.175-0.052,0.377,0.026,0.429,0.201
								c0.053,0.174-0.026,0.375-0.202,0.427c-0.149,0.052-0.324,0.096-0.499,0.148c-0.946,0.27-2.023,0.471-3.319,0.549
								c3.337,1.674,8.171,1.666,13.697-0.453c6.235-2.381,12.033-6.933,16.079-12.122c-0.079,0.078-0.123,0.078-0.175,0.078
								C114.3,272.863,112.565,271.058,111.488,270.186z"/>
						</g>
						<rect x="86.161" y="269.872" fill="#299CC0" width="3.845" height="3.802"/>
						<rect x="86.476" y="270.073" fill="#3A4D54" width="0.298" height="3.209"/>
						<rect x="87.054" y="270.073" fill="#3A4D54" width="0.324" height="3.209"/>
						<rect x="87.632" y="270.073" fill="#3A4D54" width="0.324" height="3.209"/>
						<rect x="88.21" y="270.073" fill="#3A4D54" width="0.324" height="3.209"/>
						<rect x="88.788" y="270.073" fill="#3A4D54" width="0.324" height="3.209"/>
						<rect x="89.393" y="270.073" fill="#3A4D54" width="0.298" height="3.209"/>
						<rect x="86.161" y="274.285" fill="#3CABC5" width="3.845" height="3.829"/>
						<rect x="86.476" y="274.52" fill="#3A4D54" width="0.298" height="3.209"/>
						<rect x="87.054" y="274.52" fill="#3A4D54" width="0.324" height="3.209"/>
						<rect x="87.632" y="274.52" fill="#3A4D54" width="0.324" height="3.209"/>
						<rect x="88.21" y="274.52" fill="#3A4D54" width="0.324" height="3.209"/>
						<rect x="88.788" y="274.52" fill="#3A4D54" width="0.324" height="3.209"/>
						<rect x="89.393" y="274.52" fill="#3A4D54" width="0.298" height="3.209"/>
						<rect x="81.738" y="274.285" fill="#299CC0" width="3.845" height="3.829"/>
						<rect x="82.08" y="274.52" fill="#3A4D54" width="0.298" height="3.209"/>
						<rect x="82.658" y="274.52" fill="#3A4D54" width="0.324" height="3.209"/>
						<rect x="83.236" y="274.52" fill="#3A4D54" width="0.324" height="3.209"/>
						<rect x="83.814" y="274.52" fill="#3A4D54" width="0.324" height="3.209"/>
						<rect x="84.392" y="274.52" fill="#3A4D54" width="0.324" height="3.209"/>
						<rect x="84.996" y="274.52" fill="#3A4D54" width="0.298" height="3.209"/>
						<rect x="90.61" y="269.872" fill="#3CABC5" width="3.845" height="3.802"/>
						<rect x="90.873" y="270.073" fill="#3A4D54" width="0.298" height="3.209"/>
						<rect x="91.451" y="270.073" fill="#3A4D54" width="0.324" height="3.209"/>
						<rect x="92.029" y="270.073" fill="#3A4D54" width="0.324" height="3.209"/>
						<rect x="92.607" y="270.073" fill="#3A4D54" width="0.324" height="3.209"/>
						<rect x="93.185" y="270.073" fill="#3A4D54" width="0.324" height="3.209"/>
						<rect x="93.789" y="270.073" fill="#3A4D54" width="0.298" height="3.209"/>
						<rect x="90.61" y="274.285" fill="#299CC0" width="3.845" height="3.829"/>
						<rect x="90.908" y="274.52" fill="#3A4D54" width="0.298" height="3.209"/>
						<rect x="91.486" y="274.52" fill="#3A4D54" width="0.324" height="3.209"/>
						<rect x="92.064" y="274.52" fill="#3A4D54" width="0.324" height="3.209"/>
						<rect x="92.642" y="274.52" fill="#3A4D54" width="0.324" height="3.209"/>
						<rect x="93.22" y="274.52" fill="#3A4D54" width="0.324" height="3.209"/>
						<rect x="93.824" y="274.52" fill="#3A4D54" width="0.298" height="3.209"/>
						<rect x="95.033" y="269.872" fill="#299CC0" width="3.844" height="3.802"/>
						<rect x="95.348" y="270.134" fill="#3A4D54" width="0.298" height="3.209"/>
						<rect x="95.926" y="270.134" fill="#3A4D54" width="0.324" height="3.209"/>
						<rect x="96.504" y="270.134" fill="#3A4D54" width="0.324" height="3.209"/>
						<rect x="97.082" y="270.134" fill="#3A4D54" width="0.324" height="3.209"/>
						<rect x="97.66" y="270.134" fill="#3A4D54" width="0.324" height="3.209"/>
						<rect x="98.264" y="270.134" fill="#3A4D54" width="0.298" height="3.209"/>
						<rect x="95.033" y="274.285" fill="#3CABC5" width="3.844" height="3.829"/>
						<rect x="95.348" y="274.52" fill="#3A4D54" width="0.298" height="3.209"/>
						<rect x="95.926" y="274.52" fill="#3A4D54" width="0.324" height="3.209"/>
						<rect x="96.504" y="274.52" fill="#3A4D54" width="0.324" height="3.209"/>
						<rect x="97.082" y="274.52" fill="#3A4D54" width="0.324" height="3.209"/>
						<rect x="97.66" y="274.52" fill="#3A4D54" width="0.324" height="3.209"/>
						<rect x="98.264" y="274.52" fill="#3A4D54" width="0.298" height="3.209"/>
						<rect x="99.482" y="274.285" fill="#299CC0" width="3.845" height="3.829"/>
						<rect x="99.753" y="274.52" fill="#3A4D54" width="0.298" height="3.209"/>
						<rect x="100.331" y="274.52" fill="#3A4D54" width="0.324" height="3.209"/>
						<rect x="100.909" y="274.52" fill="#3A4D54" width="0.324" height="3.209"/>
						<rect x="101.487" y="274.52" fill="#3A4D54" width="0.324" height="3.209"/>
						<rect x="102.065" y="274.52" fill="#3A4D54" width="0.324" height="3.209"/>
						<rect x="102.661" y="274.52" fill="#3A4D54" width="0.298" height="3.209"/>
						<path fill="#D4E3E2" d="M89.778,284.279c-0.604,0.009-1.06,0.48-1.06,1.055c0,0.576,0.482,1.055,1.06,1.055
							c0.578,0,1.06-0.48,1.06-1.055S90.356,284.279,89.778,284.279z"/>
						<path fill="#3A4D54" d="M90.19,285.239c-0.149,0-0.298-0.122-0.298-0.296c0-0.122,0.053-0.227,0.149-0.279
							c-0.079-0.026-0.175-0.052-0.28-0.052c-0.412,0-0.744,0.323-0.744,0.776c0,0.401,0.324,0.75,0.753,0.75
							c0.403,0,0.753-0.323,0.753-0.75c0-0.122-0.026-0.201-0.053-0.297C90.417,285.169,90.321,285.239,90.19,285.239z"/>
						<path fill="#BFD8D7" d="M87.711,287.166c-0.981,0.27-2.137,0.445-3.512,0.523c-0.499,0.026-1.06,0.052-1.611,0.052
							c-0.657,0-1.331-0.026-2.058-0.052c2.408,2.407,5.377,4.256,10.851,4.282c0.403-0.026,0.806-0.026,1.209-0.026
							C89.953,290.689,88.517,289.015,87.711,287.166z"/>
						<path fill="#D4E3E2" d="M84.199,287.689c0.954,0.497,2.286,1.003,4.501,1.177c-0.35-0.497-0.701-1.099-0.981-1.701
							C86.73,287.436,85.557,287.611,84.199,287.689z"/>
						<path fill="#279FC0" d="M96.697,293.175c-1.349,0.052-2.251-0.349-2.172-0.732c0.158-0.82,0.955-1.256,1.865-0.768
							c-0.105-0.384-0.543-0.881-1.498-1.055c-0.149-0.026-0.315-0.044-0.49-0.044c-0.946,0-2.146,0.436-2.566,1.552
							c-0.026,0.183-0.079,0.314-0.079,0.314c-1.086-0.785-1.988-0.453-2.146,0c-0.131,0.366,0.832,0.785,2.172,0.732
							c2.435-0.087,4.116,0.602,4.116,0.602h4.913C100.813,293.776,99.157,293.061,96.697,293.175z"/>
						<path fill="#3CABC5" d="M92.957,293.053c-1.138,0.061-1.944-0.436-1.83-0.872c0.131-0.541,0.893-0.933,1.813,0
							c0,0,0.35-1.238-0.701-1.805c-0.333-0.174-0.753-0.279-1.191-0.279c-0.928,0.009-1.9,0.471-2.224,1.718
							c-0.018,0.218-0.061,0.366-0.061,0.366c-0.937-0.89-1.681-0.497-1.786,0c-0.105,0.436,0.701,0.933,1.83,0.872
							c2.076-0.131,3.468,0.715,3.468,0.715h4.151C96.425,293.768,95.006,292.939,92.957,293.053z"/>
						<path fill="#78C5DB" d="M90.452,292.948c-1.305,0.078-2.233-0.497-2.111-1.003c0.149-0.628,1.033-1.073,2.084,0
							c0,0,0.403-1.43-0.806-2.076c-0.42-0.227-0.876-0.323-1.322-0.323c-1.787,0-3.451,1.631-2.146,3.375
							c0.657,0.576,1.883,0.855,3.521,0.855h4.773C94.446,293.776,92.808,292.826,90.452,292.948z"/>
						<path fill="#3CABC5" d="M107.416,290.541c0,0-0.053-0.174-0.053-0.401c-0.359-1.334-1.401-1.84-2.373-1.84
							c-0.473,0.009-0.92,0.122-1.27,0.314c-1.13,0.628-0.753,1.927-0.753,1.927c0.981-1.003,1.813-0.576,1.935,0
							c0.123,0.48-0.753,1.003-1.988,0.924c-2.207-0.122-3.722,0.776-3.722,0.776h4.449c0,0,1.506-0.898,3.722-0.776
							c1.235,0.078,2.084-0.453,1.988-0.924C109.229,289.939,108.423,289.538,107.416,290.541z"/>
						<path fill="#78C5DB" d="M108.791,288.3c-0.42,0.009-0.841,0.105-1.235,0.314c-1.13,0.628-0.753,1.927-0.753,1.927
							c0.981-1.003,1.813-0.576,1.936,0c0.123,0.48-0.753,1.003-1.988,0.924c-2.207-0.122-3.722,0.776-3.722,0.776h4.449
							c1.506,0,2.689-0.279,3.293-0.776C111.996,289.843,110.455,288.3,108.791,288.3z"/>
					</g>
				</g>
			</g>
		</g>
		<g>
			<path fill="#FFFFFF" d="M69.5,323.269c0,3.717-3.013,6.731-6.731,6.731H6.231c-3.718,0-6.731-3.013-6.731-6.731v-56.538
				c0-3.718,3.013-6.731,6.731-6.731h56.538c3.717,0,6.731,3.013,6.731,6.731V323.269z"/>
			<g>
				<path id="docker_3_" fill="#3A4D54" d="M47.656,319.571c1.225-1.077,2.451-2.082,3.676-3.159
					c0.432-0.359,0.865-0.718,1.298-1.149c-0.36-0.431-0.865-0.718-1.369-0.933c-0.937-0.359-1.874-0.215-2.811,0.287
					c-1.153,0.646-1.658,1.723-1.586,3.015c0,0.502,0.144,1.005,0.432,1.436C47.44,319.284,47.512,319.427,47.656,319.571
					 M49.098,320.576c0.577,0.215,1.298,0.215,1.946,0.072c0.288-0.144,1.153-0.503,1.442-0.431h0.072h0.072
					c0.216,0.072,0.361,0.215,0.433,0.431c0.216,0.431,0.144,0.861-0.288,1.077l-0.144,0.072c-1.586,0.933-3.244,0.79-4.83-0.072
					c-0.721-0.431-1.298-1.005-1.73-1.723l-0.072-0.144c-1.009-1.723-0.865-3.589,0.288-5.24c0.361-0.574,0.937-1.005,1.514-1.364
					l0.216-0.144c1.514-0.861,3.1-0.79,4.613-0.072c0.793,0.431,1.514,1.005,1.946,1.795l0.072,0.144
					c0.361,0.574-0.072,1.077-0.577,1.436c-0.505,0.431-1.009,0.861-1.514,1.292C51.26,318.709,50.179,319.643,49.098,320.576z
					 M60.848,312.679h0.144c0.505,0,0.865,0.359,0.865,0.861c0,0.718-0.649,0.862-1.225,0.862c-0.721,0-1.442,0.431-1.946,0.933
					c-0.649,0.646-0.937,1.436-0.937,2.297v4.02c0,0.431-0.288,0.861-0.793,0.861h-0.144c-0.505,0-0.793-0.359-0.793-0.861v-4.236
					c0-1.651,0.793-2.943,2.091-3.876C58.974,312.967,59.911,312.679,60.848,312.679z M40.159,315.479
					c0.649-0.646,1.298-1.292,1.946-1.938c0.216-0.144,0.865-0.933,1.153-0.933h0.288l0,0c0.361,0.072,0.649,0.287,0.649,0.718
					v0.144c0,0.287-0.361,0.574-0.505,0.79c-0.361,0.431-0.793,0.79-1.153,1.22l-2.018,2.01c0.865,0.861,1.73,1.723,2.595,2.584
					c0.216,0.215,0.505,0.503,0.721,0.718c0.072,0.072,0.216,0.215,0.288,0.287c0.072,0.144,0.144,0.215,0.144,0.359v0.144v0.072
					c-0.072,0.359-0.361,0.646-0.721,0.646h-0.144c-0.288,0-0.577-0.287-0.793-0.502c-0.361-0.359-0.793-0.718-1.153-1.149
					l-1.298-1.22v2.01c0,0.431-0.288,0.861-0.793,0.861h-0.144c-0.505,0-0.793-0.359-0.793-0.861v-11.055
					c0-0.431,0.288-0.79,0.793-0.79h0.144c0.505,0,0.793,0.359,0.793,0.79L40.159,315.479L40.159,315.479z M34.824,314.402
					c-0.216-0.144-0.721-0.144-1.009-0.144c-1.369-0.072-2.379,0.718-2.955,1.938c-0.216,0.431-0.288,0.861-0.288,1.364
					c0,1.436,0.721,2.441,2.018,3.015c0.432,0.215,1.081,0.287,1.586,0.287c0.432,0,1.081-0.287,1.442-0.431h0.072h0.288l0,0
					c0.361,0.072,0.649,0.287,0.649,0.718v0.143c0,1.005-1.874,1.22-2.523,1.292c-2.451,0.144-4.325-1.22-5.046-3.518
					c-0.144-0.431-0.144-0.79-0.144-1.22v-0.359c0-1.795,0.865-3.23,2.451-4.092c0.721-0.431,1.514-0.646,2.379-0.646h0.361
					c0.865,0,1.73,0.215,2.451,0.718l0.072,0.072l0.072,0.072c0.072,0.144,0.144,0.287,0.144,0.431v0.144
					c0,0.431-0.288,0.646-0.721,0.718l0,0H36.05C35.545,314.761,35.041,314.474,34.824,314.402z M19.686,317.489
					c0,1.22,0.649,2.154,1.658,2.8c0.505,0.287,1.081,0.431,1.658,0.431c1.225,0,2.162-0.646,2.811-1.651
					c0.288-0.502,0.432-1.077,0.432-1.651c0-1.148-0.577-2.082-1.514-2.728c-0.505-0.359-1.153-0.502-1.73-0.502
					c-1.37,0-2.379,0.718-2.956,1.938C19.758,316.627,19.686,317.058,19.686,317.489z M22.786,312.608h0.216
					c1.946,0,3.388,0.933,4.325,2.584c0.361,0.646,0.577,1.364,0.577,2.154v0.359c0,1.795-0.865,3.23-2.451,4.092
					c-0.721,0.431-1.514,0.646-2.379,0.646h-0.361c-1.802,0-3.244-0.861-4.109-2.441c-0.433-0.718-0.649-1.507-0.649-2.369v-0.359
					c0-1.795,0.865-3.23,2.451-4.092C21.128,312.823,21.921,312.608,22.786,312.608z M8.801,317.489
					c0,1.292,0.649,2.297,1.802,2.871c0.433,0.215,0.937,0.359,1.514,0.359c1.298,0,2.235-0.574,2.883-1.651
					c0.288-0.502,0.432-1.077,0.432-1.651c0-1.148-0.505-2.01-1.442-2.656c-0.577-0.359-1.153-0.574-1.874-0.574
					c-1.37,0-2.379,0.718-2.956,1.938C8.873,316.627,8.801,317.058,8.801,317.489z M15.361,313.828v-3.517
					c0-0.431,0.288-0.861,0.793-0.861h0.144c0.505,0,0.793,0.359,0.793,0.861v7.394c0,1.795-0.865,3.23-2.451,4.092
					c-0.721,0.431-1.514,0.646-2.379,0.646H11.9c-1.802,0-3.244-0.861-4.109-2.441c-0.432-0.718-0.649-1.507-0.649-2.369v-0.359
					c0-1.795,0.865-3.23,2.451-4.092c0.721-0.431,1.514-0.646,2.379-0.646h0.361C13.486,312.608,14.496,313.038,15.361,313.828z"/>
				<g>
					<path fill="#1D9FBE" d="M23.551,299.939c-1.721,0.106-2.947-0.646-2.77-1.315c0.2-0.81,1.356-1.421,2.735,0
						c0,0,0.542-1.855-1.049-2.736c-0.495-0.27-1.132-0.434-1.78-0.434c-1.379,0.012-2.841,0.716-3.348,2.595
						c-0.035,0.34-0.106,0.575-0.106,0.575c-1.391-1.385-2.535-0.775-2.712,0c-0.165,0.669,1.049,1.421,2.77,1.315
						c3.112-0.164,5.211,1.08,5.211,1.08h6.26C28.762,301.019,26.663,299.774,23.551,299.939z"/>
					<path fill="#1D9FBE" d="M17.303,299.939c-1.721,0.106-2.947-0.646-2.77-1.315c0.2-0.81,1.356-1.421,2.735,0
						c0,0,0.542-1.855-1.049-2.736c-0.495-0.27-1.132-0.434-1.78-0.434c-1.379,0.012-2.853,0.716-3.36,2.595
						c-0.035,0.34-0.106,0.575-0.106,0.575c-1.391-1.385-2.535-0.775-2.712,0c-0.165,0.669,1.049,1.421,2.77,1.315
						c3.112-0.164,5.211,1.08,5.211,1.08h6.272C22.514,301.019,20.415,299.774,17.303,299.939z"/>
					<path fill="#1D9FBE" d="M29.799,299.939c-1.721,0.106-2.947-0.646-2.77-1.315c0.2-0.81,1.356-1.421,2.735,0
						c0,0,0.542-1.855-1.049-2.736c-0.495-0.27-1.132-0.434-1.78-0.434c-1.368,0.012-2.841,0.716-3.348,2.595
						c-0.035,0.34-0.106,0.575-0.106,0.575c-1.391-1.385-2.535-0.775-2.712,0c-0.165,0.669,1.049,1.421,2.77,1.315
						c3.112-0.164,5.211,1.08,5.211,1.08h6.26C35.01,301.019,32.912,299.774,29.799,299.939z"/>
					<path fill="#299CC0" d="M16.053,299.199c-1.721,0.106-3.148,0.235-2.971-0.434c0.189-0.775-1.344-1.702-0.271-0.552
						c-0.424-0.434-1.603-1.585-2.876-2.277c-0.554-0.317-1.155-0.458-1.745-0.458c-2.346,0-4.492,2.183-2.794,4.496
						c0.849,0.74,2.464,1.115,4.598,1.115h6.26C16.253,301.089,19.165,299.035,16.053,299.199z"/>
					<path fill="#1D9FBE" d="M47.259,298.624c0,0-0.071-0.235-0.106-0.575c-0.507-1.878-1.981-2.583-3.36-2.583
						c-0.637,0-1.261,0.153-1.768,0.423c-1.592,0.88-1.049,2.736-1.049,2.736c1.391-1.421,2.535-0.81,2.735,0
						c0.165,0.669-1.049,1.421-2.77,1.315c-3.112-0.164-5.211,1.08-5.211,1.08h6.26c0,0,2.099-1.244,5.211-1.08
						c1.721,0.106,2.947-0.646,2.77-1.315C49.806,297.849,48.65,297.239,47.259,298.624z"/>
					<path fill="#299CC0" d="M51.468,298.354c0,0-0.106-0.34-0.13-0.88c-0.755-2.853-2.983-3.933-5.081-3.933
						c-1.002,0.012-1.981,0.258-2.747,0.669c-2.405,1.315-1.592,4.144-1.592,4.144c2.134-2.125,3.855-1.209,4.126,0
						c0.236,1.01-1.592,2.125-4.232,1.984c-4.739-0.27-7.946,1.655-7.946,1.655h9.514c0,0,3.218-1.925,7.946-1.655
						c2.606,0.129,4.468-0.974,4.232-1.984C55.323,297.18,53.602,296.264,51.468,298.354z"/>
					<path fill="#1D9FBE" d="M40.999,298.624c0,0-0.071-0.235-0.106-0.575c-0.507-1.878-1.981-2.583-3.36-2.583
						c-0.636,0-1.261,0.153-1.768,0.423c-1.592,0.88-1.049,2.736-1.049,2.736c1.391-1.421,2.535-0.81,2.735,0
						c0.165,0.669-1.049,1.421-2.77,1.315c-3.112-0.164-5.211,1.08-5.211,1.08h6.26c0,0,2.098-1.244,5.211-1.08
						c1.721,0.106,2.947-0.646,2.77-1.315C43.545,297.849,42.39,297.239,40.999,298.624z"/>
					<path fill="#32A7C2" d="M16.855,301.946c-1.45,0.07-2.464-0.54-2.334-1.115c0.165-0.669,1.12-1.174,2.264,0
						c0,0,0.436-1.55-0.884-2.289c-0.424-0.235-0.955-0.364-1.509-0.364c-1.155,0-2.37,0.587-2.782,2.148
						c0,0.27-0.071,0.47-0.071,0.47c-1.155-1.174-2.098-0.669-2.264,0.035c-0.13,0.575,0.884,1.174,2.334,1.115
						c2.605-0.129,4.362,0.916,4.362,0.916h5.246C21.217,302.862,19.46,301.817,16.855,301.946z"/>
					<path fill="#3CABC5" d="M12.434,301.946c-1.45,0.07-2.464-0.54-2.334-1.115c0.165-0.669,1.12-1.174,2.264,0
						c0,0,0.436-1.55-0.884-2.289c-0.424-0.235-0.955-0.364-1.509-0.364c-1.144,0-2.37,0.587-2.782,2.148
						c0,0.27-0.071,0.47-0.071,0.47c-1.155-1.174-2.098-0.669-2.264,0.035c-0.13,0.575,0.884,1.174,2.334,1.115
						c2.605-0.129,4.362,0.916,4.362,0.916h5.246C16.796,302.862,15.039,301.817,12.434,301.946z"/>
					<path fill="#32A7C2" d="M21.936,302.099c-1.45,0.07-2.464-0.54-2.334-1.115c0.165-0.669,1.12-1.174,2.264,0
						c0,0,0.436-1.55-0.884-2.289c-0.425-0.235-0.955-0.364-1.509-0.364c-0.011,0-0.022,0-0.033,0c-1.134,0-2.34,0.591-2.749,2.148
						c0,0.27-0.071,0.47-0.071,0.47c-1.179-1.174-2.134-0.669-2.264,0.035c-0.13,0.575,0.884,1.174,2.334,1.115
						c2.605-0.129,4.362,0.916,4.362,0.916h5.246C26.298,303.015,24.541,301.97,21.936,302.099z"/>
					<path fill="#78C5DB" d="M8.791,301.946c-1.45,0.07-2.464-0.54-2.334-1.115c0.165-0.669,1.12-1.174,2.264,0
						c0,0,0.436-1.55-0.884-2.289c-0.436-0.235-0.92-0.34-1.403-0.34c-1.981,0-3.82,1.82-2.381,3.745
						c0.707,0.61,2.098,0.916,3.855,0.916h5.246C13.153,302.862,11.396,301.817,8.791,301.946z"/>
					<path fill="#299CC0" d="M43.675,300.444c0,0-0.071-0.305-0.106-0.704c-0.613-2.348-2.405-3.228-4.067-3.228
						c-0.022,0-0.043,0-0.065,0c-0.756,0-1.496,0.198-2.081,0.529c-1.933,1.08-1.25,3.405-1.25,3.405
						c1.686-1.749,3.077-1.01,3.313,0c0.2,0.845-1.285,1.749-3.383,1.655c-3.784-0.2-6.331,1.35-6.331,1.35h7.616
						c0,0,2.676-1.115,6.425-0.916c2.098,0.129,3.49-1.245,3.277-2.09C46.752,299.434,45.361,298.694,43.675,300.444z"/>
					<path fill="#3CABC5" d="M37.462,300.948c0,0-0.071-0.2-0.071-0.47c-0.413-1.573-1.639-2.16-2.782-2.16
						c-0.554,0-1.096,0.141-1.509,0.376c-1.32,0.74-0.884,2.289-0.884,2.289c1.155-1.174,2.098-0.669,2.264,0
						c0.13,0.575-0.884,1.174-2.334,1.115c-2.605-0.129-4.362,0.916-4.362,0.916h5.246c0,0,1.757-1.045,4.362-0.916
						c1.45,0.07,2.464-0.54,2.334-1.115C39.561,300.279,38.606,299.774,37.462,300.948z"/>
					<path fill="#238BB5" d="M9.652,294.174l0.436,0.81c0.271,0.47,0.578,0.916,0.908,1.35c1.592,0.106,3.006,0.129,4.362,0.106
						c2.605-0.07,4.739-0.376,6.354-0.916c0.236-0.07,0.507,0.035,0.578,0.27s-0.035,0.505-0.271,0.575
						c-0.2,0.07-0.436,0.129-0.672,0.2c-1.285,0.376-2.735,0.61-4.503,0.74h-0.236c-0.672,0.035-1.426,0.07-2.193,0.07
						c-0.849,0-1.686,0-2.606-0.07c3.183,3.569,8.217,5.729,14.442,5.729c11.33,0,21.173-4.285,26.891-13.759l-45.011,0.012
						C8.367,291.04,8.873,292.695,9.652,294.174z"/>
					<path fill="#3A4D54" d="M57.716,278.948c-0.307-2.395-1.863-4.485-3.749-5.999l-0.743-0.61l-0.648,0.704
						c-1.25,1.444-1.627,3.874-1.45,5.729c0.106,1.35,0.543,2.735,1.391,3.839c-0.648,0.376-1.391,0.669-2.028,0.916
						c-1.32,0.47-2.77,0.704-4.161,0.704h-3.006v-6.069h-5.954l-0.035-0.035v-12.069h-7.179v6.105H18.21v5.964h-5.954v6.069H7.152
						l-0.071,0.916c-0.047,0.587-0.083,1.162-0.083,1.749v0.023c0,2.407,0.46,4.801,1.462,6.997l0.542,1.08l0.071,0.106
						c3.655,6.234,10.15,8.864,17.189,8.864c13.664,0,24.899-6.069,30.074-18.913c3.49,0.2,7.003-0.81,8.689-4.109l0.436-0.845
						l-0.813-0.47C62.656,278.443,59.979,278.279,57.716,278.948z"/>
					<path fill="#2193C1" d="M8.072,285.241c-0.307,3.275,0.271,6.269,1.592,8.864l0.436,0.81c0.271,0.47,0.578,0.916,0.908,1.35
						c1.592,0.106,3.006,0.129,4.362,0.106c2.606-0.071,4.739-0.376,6.354-0.916c0.236-0.071,0.507,0.035,0.578,0.27
						s-0.035,0.505-0.271,0.575c-0.2,0.071-0.436,0.129-0.672,0.2c-1.285,0.376-2.641,0.61-4.397,0.704h-0.106h-0.2
						c-0.672,0.035-1.45,0.035-2.205,0.035c-0.849,0-1.662,0-2.57-0.07h-0.035c3.183,3.569,8.182,5.694,14.406,5.694
						c13.227,0,24.451-5.835,29.391-18.948c3.513,0.376,6.897-0.54,8.453-3.534c-2.44-1.315-5.612-0.88-7.404,0.035
						c0.401-3.099-1.933-5.529-3.383-6.703c-1.639,1.925-1.91,6.938,0.696,9.063c-1.45,1.28-4.527,2.465-7.675,2.465L8.072,285.241
						L8.072,285.241z"/>
					<g>
						<path fill="#209DC6" d="M16.796,297.203l0.035,0.035h0.024C16.831,297.227,16.808,297.215,16.796,297.203z"/>
						<path fill="#209DC6" d="M53.33,273.712c-1.662,1.925-1.933,6.938,0.672,9.063c-1.45,1.28-4.527,2.465-7.675,2.465H10.335
							c-0.165,5.025,1.721,8.793,5.01,11.129c2.606-0.071,4.739-0.376,6.354-0.916c0.236-0.071,0.507,0.035,0.578,0.27
							s-0.035,0.505-0.271,0.575c-0.2,0.071-0.436,0.129-0.672,0.2c-1.273,0.364-2.723,0.634-4.468,0.74
							c4.492,2.254,10.999,2.242,18.438-0.61c8.394-3.205,16.198-9.333,21.645-16.318c-0.106,0.106-0.165,0.106-0.236,0.106
							C57.115,277.316,54.78,274.886,53.33,273.712z"/>
					</g>
					<rect x="19.236" y="273.289" fill="#299CC0" width="5.175" height="5.119"/>
					<rect x="19.661" y="273.559" fill="#3A4D54" width="0.401" height="4.32"/>
					<rect x="20.439" y="273.559" fill="#3A4D54" width="0.436" height="4.32"/>
					<rect x="21.217" y="273.559" fill="#3A4D54" width="0.436" height="4.32"/>
					<rect x="21.995" y="273.559" fill="#3A4D54" width="0.436" height="4.32"/>
					<rect x="22.773" y="273.559" fill="#3A4D54" width="0.436" height="4.32"/>
					<rect x="23.586" y="273.559" fill="#3A4D54" width="0.401" height="4.32"/>
					<rect x="19.236" y="279.23" fill="#3CABC5" width="5.175" height="5.154"/>
					<rect x="19.661" y="279.547" fill="#3A4D54" width="0.401" height="4.32"/>
					<rect x="20.439" y="279.547" fill="#3A4D54" width="0.436" height="4.32"/>
					<rect x="21.217" y="279.547" fill="#3A4D54" width="0.436" height="4.32"/>
					<rect x="21.995" y="279.547" fill="#3A4D54" width="0.436" height="4.32"/>
					<rect x="22.773" y="279.547" fill="#3A4D54" width="0.436" height="4.32"/>
					<rect x="23.586" y="279.547" fill="#3A4D54" width="0.401" height="4.32"/>
					<rect x="13.283" y="279.23" fill="#299CC0" width="5.175" height="5.154"/>
					<rect x="13.742" y="279.547" fill="#3A4D54" width="0.401" height="4.32"/>
					<rect x="14.52" y="279.547" fill="#3A4D54" width="0.436" height="4.32"/>
					<rect x="15.299" y="279.547" fill="#3A4D54" width="0.436" height="4.32"/>
					<rect x="16.077" y="279.547" fill="#3A4D54" width="0.436" height="4.32"/>
					<rect x="16.855" y="279.547" fill="#3A4D54" width="0.436" height="4.32"/>
					<rect x="17.668" y="279.547" fill="#3A4D54" width="0.401" height="4.32"/>
					<rect x="25.225" y="273.289" fill="#3CABC5" width="5.175" height="5.119"/>
					<rect x="25.579" y="273.559" fill="#3A4D54" width="0.401" height="4.32"/>
					<rect x="26.357" y="273.559" fill="#3A4D54" width="0.436" height="4.32"/>
					<rect x="27.135" y="273.559" fill="#3A4D54" width="0.436" height="4.32"/>
					<rect x="27.913" y="273.559" fill="#3A4D54" width="0.436" height="4.32"/>
					<rect x="28.691" y="273.559" fill="#3A4D54" width="0.436" height="4.32"/>
					<rect x="29.504" y="273.559" fill="#3A4D54" width="0.401" height="4.32"/>
					<rect x="25.225" y="279.23" fill="#299CC0" width="5.175" height="5.154"/>
					<rect x="25.626" y="279.547" fill="#3A4D54" width="0.401" height="4.32"/>
					<rect x="26.404" y="279.547" fill="#3A4D54" width="0.436" height="4.32"/>
					<rect x="27.182" y="279.547" fill="#3A4D54" width="0.436" height="4.32"/>
					<rect x="27.96" y="279.547" fill="#3A4D54" width="0.436" height="4.32"/>
					<rect x="28.738" y="279.547" fill="#3A4D54" width="0.436" height="4.32"/>
					<rect x="29.552" y="279.547" fill="#3A4D54" width="0.401" height="4.32"/>
					<rect x="31.179" y="273.289" fill="#299CC0" width="5.175" height="5.119"/>
					<rect x="31.603" y="273.642" fill="#3A4D54" width="0.401" height="4.32"/>
					<rect x="32.381" y="273.642" fill="#3A4D54" width="0.436" height="4.32"/>
					<rect x="33.159" y="273.642" fill="#3A4D54" width="0.436" height="4.32"/>
					<rect x="33.937" y="273.642" fill="#3A4D54" width="0.436" height="4.32"/>
					<rect x="34.715" y="273.642" fill="#3A4D54" width="0.436" height="4.32"/>
					<rect x="35.529" y="273.642" fill="#3A4D54" width="0.401" height="4.32"/>
					<rect x="31.179" y="279.23" fill="#3CABC5" width="5.175" height="5.154"/>
					<rect x="31.603" y="279.547" fill="#3A4D54" width="0.401" height="4.32"/>
					<rect x="32.381" y="279.547" fill="#3A4D54" width="0.436" height="4.32"/>
					<rect x="33.159" y="279.547" fill="#3A4D54" width="0.436" height="4.32"/>
					<rect x="33.937" y="279.547" fill="#3A4D54" width="0.436" height="4.32"/>
					<rect x="34.715" y="279.547" fill="#3A4D54" width="0.436" height="4.32"/>
					<rect x="35.529" y="279.547" fill="#3A4D54" width="0.401" height="4.32"/>
					<rect x="37.167" y="279.23" fill="#299CC0" width="5.175" height="5.154"/>
					<rect x="37.533" y="279.547" fill="#3A4D54" width="0.401" height="4.32"/>
					<rect x="38.311" y="279.547" fill="#3A4D54" width="0.436" height="4.32"/>
					<rect x="39.089" y="279.547" fill="#3A4D54" width="0.436" height="4.32"/>
					<rect x="39.867" y="279.547" fill="#3A4D54" width="0.436" height="4.32"/>
					<rect x="40.645" y="279.547" fill="#3A4D54" width="0.436" height="4.32"/>
					<rect x="41.447" y="279.547" fill="#3A4D54" width="0.401" height="4.32"/>
					<path fill="#D4E3E2" d="M24.105,292.684c-0.814,0.012-1.427,0.646-1.427,1.421s0.648,1.421,1.427,1.421
						c0.778,0,1.426-0.646,1.426-1.421C25.532,293.329,24.883,292.684,24.105,292.684z"/>
					<path fill="#3A4D54" d="M24.659,293.975c-0.2,0-0.401-0.164-0.401-0.399c0-0.164,0.071-0.305,0.2-0.376
						c-0.106-0.035-0.236-0.071-0.377-0.071c-0.554,0-1.002,0.434-1.002,1.045c0,0.54,0.436,1.01,1.014,1.01
						c0.542,0,1.014-0.434,1.014-1.01c0-0.164-0.035-0.27-0.071-0.399C24.966,293.881,24.836,293.975,24.659,293.975z"/>
					<path fill="#BFD8D7" d="M21.323,296.569c-1.32,0.364-2.876,0.599-4.727,0.704c-0.672,0.035-1.427,0.07-2.169,0.07
						c-0.884,0-1.792-0.035-2.77-0.07c3.242,3.24,7.239,5.729,14.607,5.764c0.542-0.035,1.085-0.035,1.627-0.035
						C24.341,301.312,22.407,299.058,21.323,296.569z"/>
					<path fill="#D4E3E2" d="M16.595,297.274c1.285,0.669,3.077,1.35,6.06,1.585c-0.472-0.669-0.943-1.479-1.32-2.289
						C20.002,296.933,18.423,297.168,16.595,297.274z"/>
					<path fill="#279FC0" d="M33.419,304.658c-1.816,0.071-3.03-0.47-2.924-0.986c0.212-1.104,1.285-1.691,2.511-1.033
						c-0.141-0.516-0.731-1.186-2.016-1.421c-0.2-0.035-0.424-0.059-0.66-0.059c-1.273,0-2.888,0.587-3.454,2.09
						c-0.035,0.247-0.106,0.423-0.106,0.423c-1.462-1.057-2.676-0.61-2.888,0c-0.177,0.493,1.12,1.057,2.924,0.986
						c3.277-0.117,5.541,0.81,5.541,0.81h6.614C38.959,305.468,36.731,304.506,33.419,304.658z"/>
					<path fill="#3CABC5" d="M28.384,304.494c-1.533,0.082-2.617-0.587-2.464-1.174c0.177-0.728,1.202-1.256,2.44,0
						c0,0,0.472-1.667-0.943-2.43c-0.448-0.235-1.014-0.376-1.603-0.376c-1.25,0.012-2.558,0.634-2.994,2.313
						c-0.024,0.293-0.083,0.493-0.083,0.493c-1.261-1.197-2.264-0.669-2.405,0c-0.141,0.587,0.943,1.256,2.464,1.174
						c2.794-0.176,4.669,0.963,4.669,0.963h5.588C33.053,305.456,31.143,304.341,28.384,304.494z"/>
					<path fill="#78C5DB" d="M25.013,304.353c-1.756,0.106-3.006-0.669-2.841-1.35c0.2-0.845,1.391-1.444,2.806,0
						c0,0,0.542-1.925-1.085-2.794c-0.566-0.305-1.179-0.434-1.78-0.434c-2.405,0-4.645,2.195-2.888,4.543
						c0.884,0.775,2.535,1.151,4.739,1.151h6.425C30.389,305.468,28.184,304.189,25.013,304.353z"/>
					<path fill="#3CABC5" d="M47.848,301.113c0,0-0.071-0.235-0.071-0.54c-0.483-1.796-1.886-2.477-3.195-2.477
						c-0.636,0.012-1.238,0.164-1.709,0.423c-1.521,0.845-1.014,2.594-1.014,2.594c1.32-1.35,2.44-0.775,2.605,0
						c0.165,0.646-1.014,1.35-2.676,1.245c-2.971-0.164-5.01,1.045-5.01,1.045h5.989c0,0,2.028-1.209,5.01-1.045
						c1.662,0.106,2.806-0.61,2.676-1.245C50.289,300.303,49.204,299.763,47.848,301.113z"/>
					<path fill="#78C5DB" d="M49.699,298.096c-0.566,0.012-1.132,0.141-1.662,0.423c-1.521,0.845-1.014,2.594-1.014,2.594
						c1.32-1.35,2.44-0.775,2.606,0c0.165,0.646-1.014,1.35-2.676,1.244c-2.971-0.164-5.01,1.045-5.01,1.045h5.989
						c2.028,0,3.619-0.376,4.433-1.045C54.014,300.174,51.939,298.096,49.699,298.096z"/>
				</g>
			</g>
		</g>
		<g>
			<g transform="scale(0.1953125, 0.1953125)">
				<path fill="#FFFFFF" d="M-2.56,609.284v81.92h81.92v-54.613h-5.851v-20.48H34.012l-1.463-6.827H-2.56z M38.4,636.59
					l-2.926-13.653h32.183v13.653H38.4z"/>
			</g>
		</g>
		<g>
			<polygon fill="#FFFFFF" points="7.5,137 7.5,141 11.5,141 			"/>
			<polygon fill="#FFFFFF" points="6.5,137 -0.5,137 -0.5,153 11.5,153 11.5,142 6.5,142 			"/>
		</g>
		<g>
			
				<linearGradient id="SVGID_1_" gradientUnits="userSpaceOnUse" x1="-59.5" y1="102.5" x2="-29.5" y2="102.5" gradientTransform="matrix(1 0 0 -1 59 314.5)">
				<stop  offset="0" style="stop-color:#3A7DB8"/>
				<stop  offset="1" style="stop-color:#3A7BB6"/>
			</linearGradient>
			<rect x="-0.5" y="211" fill="url(#SVGID_1_)" width="30" height="2"/>
			
				<linearGradient id="SVGID_2_" gradientUnits="userSpaceOnUse" x1="-59.5" y1="99.5" x2="-29.5" y2="99.5" gradientTransform="matrix(1 0 0 -1 59 314.5)">
				<stop  offset="0" style="stop-color:#3A7DB8"/>
				<stop  offset="1" style="stop-color:#3A7BB6"/>
			</linearGradient>
			<rect x="-0.5" y="214" fill="url(#SVGID_2_)" width="30" height="2"/>
			<polygon fill="#87B928" points="-0.5,217 -0.5,219 11.5,219 11.5,241 13.5,241 13.5,219 13.5,217 11.5,217 			"/>
			
				<linearGradient id="SVGID_3_" gradientUnits="userSpaceOnUse" x1="-59.5" y1="84" x2="-48.5" y2="84" gradientTransform="matrix(1 0 0 -1 59 314.5)">
				<stop  offset="0" style="stop-color:#3A7DB8"/>
				<stop  offset="1" style="stop-color:#3A7BB6"/>
			</linearGradient>
			<polygon fill="url(#SVGID_3_)" points="-0.5,222 8.5,222 8.5,241 10.5,241 10.5,222 10.5,222 10.5,220 -0.5,220 			"/>
			<polygon fill="#87B928" points="15.5,217 15.5,219 15.5,241 17.5,241 17.5,219 29.5,219 29.5,217 17.5,217 			"/>
			
				<linearGradient id="SVGID_4_" gradientUnits="userSpaceOnUse" x1="-40.5" y1="84" x2="-29.5" y2="84" gradientTransform="matrix(1 0 0 -1 59 314.5)">
				<stop  offset="0" style="stop-color:#3A7DB8"/>
				<stop  offset="1" style="stop-color:#3A7BB6"/>
			</linearGradient>
			<polygon fill="url(#SVGID_4_)" points="18.5,222 18.5,222 18.5,241 20.5,241 20.5,222 29.5,222 29.5,220 18.5,220 			"/>
			<path fill="#FFFFFF" d="M40.533,220L34.5,236h2.732l1.749-5h6.091l1.748,5h2.709l-5.963-16H40.533z M39.734,229
				c0.193,0,0.386-1.054,0.579-1.583s0.384-1.026,0.573-1.547s0.378-1.028,0.567-1.55c0.189-0.521,0.38-1.1,0.573-1.64l2.27,6.32
				L39.734,229L39.734,229z"/>
			<path fill="#FFFFFF" d="M61.125,228.451c-0.444-0.355-0.949-0.66-1.517-0.915c-0.567-0.254-1.146-0.486-1.737-0.695
				c-0.591-0.208-1.169-0.411-1.737-0.607c-0.567-0.197-1.073-0.419-1.517-0.666s-0.801-0.535-1.071-0.863
				c-0.271-0.328-0.405-0.728-0.405-1.198c0-0.417,0.09-0.772,0.272-1.065c0.181-0.293,0.418-0.528,0.712-0.706
				s0.627-0.307,1.002-0.388c0.374-0.081,0.754-0.122,1.14-0.122c0.425,0,0.826,0.07,1.205,0.208
				c0.378,0.139,0.714,0.344,1.007,0.614c0.293,0.271,0.534,0.378,0.724,0.78c0.189,0.401,0.303,1.173,0.341,1.173h2.628
				c-0.031,0-0.092-0.555-0.185-0.965s-0.236-0.695-0.428-1.084c-0.193-0.39-0.438-0.703-0.735-1.055
				c-0.297-0.351-0.66-0.627-1.088-0.886c-0.429-0.259-0.929-0.451-1.5-0.605c-0.571-0.154-1.228-0.224-1.969-0.224
				c-0.841,0-1.611,0.098-2.31,0.287c-0.698,0.189-1.301,0.467-1.806,0.829c-0.505,0.363-0.897,0.813-1.175,1.35
				s-0.417,1.157-0.417,1.859c0,0.71,0.135,1.32,0.405,1.83c0.271,0.509,0.627,0.948,1.071,1.314c0.444,0.367,0.95,0.68,1.517,0.938
				c0.567,0.259,1.148,0.494,1.742,0.707c0.595,0.212,1.175,0.415,1.743,0.608s1.073,0.407,1.517,0.643s0.801,0.505,1.071,0.811
				c0.271,0.305,0.405,0.677,0.405,1.117c0,0.533-0.098,0.984-0.295,1.354c-0.197,0.371-0.459,0.672-0.788,0.903
				s-0.706,0.399-1.135,0.504c-0.428,0.104-0.878,0.156-1.349,0.156c-0.532,0-1.019-0.097-1.458-0.29
				c-0.44-0.193-0.824-0.463-1.152-0.811s-0.59-0.508-0.787-0.983C52.87,231.833,52.752,231,52.713,231h-2.628
				c0.016,0,0.11,0.931,0.284,1.464c0.174,0.532,0.407,0.896,0.701,1.339c0.293,0.444,0.641,0.775,1.042,1.119
				c0.401,0.344,0.835,0.604,1.303,0.843c0.467,0.239,0.959,0.405,1.476,0.528s1.042,0.178,1.575,0.178
				c0.888,0,1.708-0.11,2.461-0.323c0.752-0.212,1.401-0.529,1.945-0.945c0.544-0.417,0.968-0.937,1.273-1.559
				c0.305-0.621,0.458-1.341,0.458-2.16c0-0.687-0.135-1.276-0.405-1.766C61.926,229.229,61.569,228.806,61.125,228.451z"/>
			<path fill="#FFFFFF" d="M75.768,231.634c-0.247,0.525-0.562,0.998-0.944,1.407s-0.828,0.742-1.337,0.993
				c-0.509,0.25-1.077,0.378-1.702,0.378c-0.61,0-1.21-0.136-1.8-0.41c-0.591-0.274-1.12-0.692-1.586-1.256
				c-0.467-0.563-0.844-1.271-1.129-2.124c-0.286-0.853-0.429-1.858-0.429-3.016c0-0.857,0.12-1.673,0.359-2.449
				s0.577-1.455,1.013-2.038s0.956-1.048,1.558-1.395s1.266-0.521,1.992-0.521c1.142,0,2.082,0.428,2.819,1.007
				c0.737,0.579,1.314,1.791,1.731,2.791h2.675c-0.231-1-0.548-1.695-0.949-2.374c-0.402-0.679-0.899-1.333-1.494-1.823
				c-0.594-0.49-1.287-0.909-2.078-1.187c-0.792-0.278-1.692-0.434-2.704-0.434c-0.795,0-1.531,0.1-2.206,0.316
				c-0.675,0.216-1.293,0.513-1.853,0.899s-1.054,0.839-1.482,1.364c-0.429,0.525-0.79,1.099-1.083,1.725
				c-0.293,0.625-0.515,1.285-0.666,1.979c-0.15,0.694-0.226,1.401-0.226,2.118c0,1.39,0.177,2.634,0.532,3.734
				s0.859,2.032,1.511,2.796s1.443,1.347,2.374,1.748c0.93,0.401,1.97,0.603,3.121,0.603c0.996,0,1.897-0.168,2.704-0.504
				s1.509-0.793,2.107-1.372s1.092-1.273,1.482-2.057c0.39-0.783,0.669-1.531,0.839-2.531H76.3
				C76.192,231,76.014,231.109,75.768,231.634z"/>
		</g>
		<g>
			<g transform="scale(0.1953125, 0.1953125)">
				<path fill="#FFFFFF" d="M128.659,860.164H71.607c-1.05,0-1.902-0.85-1.902-1.902c0-1.05,0.852-1.902,1.902-1.902h57.052
					c1.05,0,1.902,0.852,1.902,1.902C130.56,859.314,129.708,860.164,128.659,860.164z M101.458,850.14
					c-0.744,0.744-1.947,0.744-2.689,0c-0.126-0.125-2.927-3.005-3.01-3.153l-21.712-21.712c-0.744-0.744-0.744-1.947,0-2.691
					c0.742-0.742,1.945-0.742,2.689,0l21.495,21.497v-48.576c0-1.05,0.852-1.902,1.902-1.902c1.05,0,1.902,0.852,1.902,1.902v48.68
					l21.495-21.497c0.744-0.744,1.947-0.744,2.689,0c0.744,0.744,0.744,1.945,0,2.689L101.458,850.14z"/>
			</g>
		</g>
		<g>
			<g>
				<g transform="scale(0.1953125, 0.1953125)">
					<path fill="#39B3EF" d="M56.843,860.164H-0.209c-1.05,0-1.902-0.85-1.902-1.902c0-1.05,0.852-1.902,1.902-1.902h57.052
						c1.05,0,1.902,0.852,1.902,1.902C58.745,859.314,57.893,860.164,56.843,860.164z M29.643,850.14
						c-0.744,0.744-1.947,0.744-2.689,0c-0.126-0.125-2.927-3.005-3.01-3.153L2.231,825.275c-0.744-0.744-0.744-1.947,0-2.691
						c0.742-0.742,1.945-0.742,2.689,0l21.495,21.497v-48.576c0-1.05,0.852-1.902,1.902-1.902c1.05,0,1.902,0.852,1.902,1.902v48.68
						l21.495-21.497c0.744-0.744,1.947-0.744,2.689,0c0.744,0.744,0.744,1.945,0,2.689L29.643,850.14z"/>
				</g>
			</g>
		</g>
		<polygon fill="#FFFFFF" points="29.5,103 5.55,103 13.715,94.835 11.594,92.714 -0.193,104.5 11.594,116.286 13.715,114.165 
			5.55,106 29.5,106 		"/>
		<polygon fill="#39B3EF" points="6.5,173 3.5,173 3.5,170 2.5,170 2.5,173 -0.5,173 -0.5,174 2.5,174 2.5,177 3.5,177 3.5,174 
			6.5,174 		"/>
		<polygon fill="#FFFFFF" points="15.5,173 12.5,173 12.5,170 11.5,170 11.5,173 8.5,173 8.5,174 11.5,174 11.5,177 12.5,177 
			12.5,174 15.5,174 		"/>
	</g>
	<polygon fill="none" stroke="#999999" stroke-miterlimit="10" points="22.657,333 11.657,345 0.657,333 	"/>
	<polygon fill="none" stroke="#999999" stroke-miterlimit="10" points="33,333 45,344 33,355 	"/>
	<g>
		<path fill="#39B3EF" d="M7.5,369.5c0,1.381-0.895,2.5-2,2.5l0,0c-1.105,0-2-1.119-2-2.5v-5c0-1.381,0.895-2.5,2-2.5l0,0
			c1.105,0,2,1.119,2,2.5V369.5z"/>
		<g>
			<path fill="#999999" d="M1.5,366v-4c0-1.103,0.897-2,2-2h4c1.103,0,2,0.897,2,2v4h2v-4c0-2.206-1.794-4-4-4h-4
				c-2.206,0-4,1.794-4,4v4H1.5z"/>
			<path fill="#999999" d="M9.5,368v4c0,1.103-0.897,2-2,2h-4c-1.103,0-2-0.897-2-2v-4h-2v4c0,2.206,1.794,4,4,4h4
				c2.206,0,4-1.794,4-4v-4H9.5z"/>
		</g>
	</g>
	<g>
		<circle fill="#F3A93A" cx="6.5" cy="385" r="7"/>
		<g>
			<path fill="#FFFFFF" d="M5.516,387.934h1.793v1.77H5.516V387.934z M5.586,380.059h1.828l-0.258,6.926H5.633L5.586,380.059z"/>
		</g>
	</g>
</g>
</svg>
